<?xml version="1.0" standalone="no"?>
<!DOCTYPE svg PUBLIC "-//W3C//DTD SVG 20010904//EN"
 "http://www.w3.org/TR/2001/REC-SVG-20010904/DTD/svg10.dtd">
<svg version="1.0" xmlns="http://www.w3.org/2000/svg"
 width="513.000000pt" height="513.000000pt" viewBox="0 0 513.000000 513.000000"
 preserveAspectRatio="xMidYMid meet">
<metadata>
Created by potrace 1.14, written by Peter Selinger 2001-2017
</metadata>
<g transform="translate(0.000000,513.000000) scale(0.100000,-0.100000)"
fill="#000000" stroke="none">
<path d="M2437 5124 c-1 -1 -42 -4 -91 -8 -381 -27 -793 -163 -1131 -374 -257
-160 -476 -358 -683 -618 -125 -156 -270 -416 -361 -645 -53 -135 -121 -390
-136 -514 -4 -27 -8 -57 -10 -65 -10 -38 -19 -188 -19 -325 -2 -246 25 -449
90 -693 112 -414 348 -818 658 -1127 131 -130 332 -293 432 -349 16 -9 52 -31
79 -48 28 -17 93 -52 145 -79 458 -232 968 -318 1499 -253 184 22 417 84 616
164 95 38 313 146 336 166 8 8 19 14 22 14 7 0 147 90 157 100 3 3 21 17 40
30 119 82 312 261 427 395 263 305 452 673 547 1065 26 108 31 130 42 209 4
25 8 53 9 62 25 136 24 515 0 669 -30 190 -30 188 -60 305 -39 151 -78 261
-137 395 -282 635 -801 1122 -1461 1370 -89 33 -254 83 -320 96 -223 44 -336
56 -545 58 -78 1 -144 1 -145 0z"/>
</g>
</svg>
