<?xml version="1.0" encoding="UTF-8"?><svg xmlns="http://www.w3.org/2000/svg" viewBox="0 0 100.94 120.5"><defs><style>.e{fill:#58646d;}</style></defs><g id="a"/><g id="b"><g id="c"><g id="d"><path class="e" d="M50.47,95.58c-19.96,0-36.14,3.49-36.14,7.79s16.18,7.79,36.14,7.79,36.14-3.49,36.14-7.79-16.18-7.79-36.14-7.79Zm0,11.84c-15.14,0-27.41-2.23-27.41-4.98s12.27-4.98,27.41-4.98,27.41,2.23,27.41,4.98-12.27,4.98-27.41,4.98Z"/><path class="e" d="M50.47,92.86c-27.87,0-50.47,6.19-50.47,13.82s22.6,13.82,50.47,13.82,50.47-6.19,50.47-13.82-22.6-13.82-50.47-13.82Zm0,22.65c-23.74,0-42.99-4.79-42.99-10.71s19.25-10.71,42.99-10.71,42.99,4.79,42.99,10.71-19.25,10.71-42.99,10.71Z"/><path class="e" d="M50.13,0c-68.92,0,0,102.65,0,102.65,0,0,64.13-102.65,0-102.65Zm-.7,45.54c-9.43,0-17.07-7.06-17.07-15.77s7.64-15.77,17.07-15.77,17.07,7.06,17.07,15.77-7.64,15.77-17.07,15.77Z"/></g></g></g></svg>