<svg width="600" height="473" viewBox="0 0 600 473" fill="none" xmlns="http://www.w3.org/2000/svg">
<g clip-path="url(#clip0_227_2748)">
<path d="M738.473 391.545L742.256 388.526H752.847V400.603H762.968V380.004L761.924 378.962V376.154H773.272V371.278H786.132V368.772H798.236V370.584H811.853V371.761H818.661V375.732L820.174 377.241H823.957L820.931 379.883V385.544L833.791 385.348V394.603L845.895 390.073H848.921L851.19 386.971V374.184H853.46L855.729 376.403H862.538V375.022H869.346V376.305H879.18V374.433H882.963V376.449L898.093 376.207V374.184L904.901 374.041V376.449L927.596 376.305V374.358H933.481V377.936H935.917L938.187 373.407L984.249 370.818V365.103H988.115V371.897L989.726 374.161H997.193V520.977H-35.7947V161.275H-12.2451L-4.40033 168.868L1.6516 197.552L4.67756 198.307L6.94703 202.836H13.7554L17.5379 207.365H25.8593L34.1807 219.442V188.494L76.5442 109.236V107.726L75.7877 106.972L76.5442 106.217V101.688L75.7877 100.933L76.5442 100.178L77.3006 87.3457L78.0571 100.178L78.8136 100.933L78.0571 101.688V106.217L78.8136 106.972L78.0571 107.726V109.236L81.8396 113.765V109.236L81.0831 108.481L81.8396 107.726L82.5961 94.8941L83.3526 107.726L84.1091 108.481L83.3526 109.236V117.539L98.4824 173.397V114.52L108.317 112.255L112.099 116.784L111.343 180.191L114.369 187.739V167.359L112.856 166.604L117.395 159.055L118.151 143.959L118.908 159.055L121.934 160.565L124.96 169.623H123.447V191.513H134.037V183.965H132.524L134.037 182.455V179.844H138.576L139.613 181.149V182.833L140.823 183.965H139.31V191.513H204.368V186.229H202.855L204.368 184.72V180.191H208.151L208.907 180.946V184.72L210.42 186.229H208.907V191.513H233.871V189.528H233.115V187.739H233.871V183.474H235.384V187.951H236.141V189.332H235.384V195.288L243.706 209.629H263.594V195.189H262.641V193.778H261.884V193.023H261.128V190.759H259.615V189.249H258.858V129.617H257.028C257.028 129.617 261.884 130.371 267.18 94.8941V90.9463H266.423V89.6102H267.301L267.966 75.2683L268.723 89.6102H269.479V91.0746H268.723V94.8941C268.723 94.8941 270.236 106.217 270.992 106.972H277.044L278.557 97.9135L279.314 103.952L281.583 100.178L283.853 86.5909L284.609 93.3844L289.905 81.307L290.661 73.0038L291.418 79.0425L293.687 76.0232V68.4748H296.774L299.739 63.1909V55.4161L300.496 60.9264L302.009 55.6425V53.4611H300.586V51.1135H302.009L303.522 26.2039L304.278 51.1135H305.791V53.5516H304.278V55.6199L306.547 63.1683L314.869 80.5295L315.625 74.4908L316.382 83.5489L321.677 94.1166L322.434 88.8328L323.947 98.6457L326.216 102.42H327.729L328.486 97.136L329.242 102.42H333.781V100.352H336.807V115.909L339.077 99.4458V95.5282H338.32V94.1619H339.077L339.833 79.0652L340.59 94.1619H341.346V95.5282H340.59V99.4458C340.59 99.4458 344.372 125.865 348.911 131.149H347.398V190.026H346.641V191.536H345.129V193.046H344.372V195.31H343.616V245.13H378.505L379.148 237.581L379.904 246.639L382.93 249.659L383.687 242.865L384.443 251.923L390.495 257.962L404.112 230.033L404.868 216.446L405.625 230.033L415.459 250.413H418.485L419.242 237.581L420.755 246.639H423.024L423.781 242.865L424.537 246.639H427.563C427.563 246.639 429.076 252.678 430.589 253.433V243.62H429.076L434.652 231.165L435.128 223.994L435.885 229.278L442.693 212.671L443.45 201.349L444.206 212.671L451.771 229.278L452.527 226.259L453.284 232.297L457.823 240.6H457.066V248.904L464.631 246.639L465.388 240.6L466.144 246.639L473.709 253.433L475.222 251.168V247.469H475.979L488.082 223.217V208.875H485.057V207.365H488.082V203.591H488.839V207.365H491.865V208.973L488.839 208.875V223.217L503.212 250.391L504.725 248.881L505.482 243.597L506.238 248.881L508.508 251.9V260.377L510.021 257.947L510.777 251.153L511.534 257.947L514.56 262.476V272.289L516.829 275.308L515.316 277.572V279.837H519.212L520.612 285.876C520.612 285.876 527.42 288.14 527.42 296.443H530.68V299.561H532.715L531.248 301.025L531.202 304.747H532.715L534.607 306.634L533.094 308.143V322.108H537.368V327.671C537.368 327.671 543.306 324.372 546.332 324.372C549.358 324.372 554.654 317.579 554.654 317.579L555.41 286.63L556.923 317.579C556.923 317.579 559.949 324.372 566.001 325.127C572.053 325.882 576.592 330.411 576.592 334.185H572.809V357.585H727.89V399.856H738.481L738.473 391.545Z" fill="#F9EC93"/>
<path d="M740.486 391.341L744.268 388.322H754.859V400.4H764.981V379.8L763.937 378.758V375.95H775.284V371.074H788.145V368.568H800.248V370.334H813.865V371.519H820.674V375.49L822.187 377H825.969L822.943 379.642V385.303L835.803 385.107V394.361L847.907 389.832H850.933L853.203 386.729V373.98H855.472L857.742 376.192H864.55V374.818H871.359V376.094H881.193V374.229H884.975V376.245L900.105 375.996V373.98L906.914 373.829V376.245L929.608 376.094V374.176H935.494V377.754H937.93L940.199 373.225L986.262 370.636V364.922H990.128V371.716L991.739 373.98H999.205V520.796H-33.7825V161.063H-10.2329L-2.38811 168.664L3.66381 197.348L6.68978 198.103L8.95925 202.632H15.7677L19.5501 207.161H27.8715L36.1929 219.238V188.29L78.5564 109.032V107.522L77.7999 106.768L78.5564 106.013V101.484L77.7999 100.729L78.5564 99.9741L79.3129 87.1419L80.0694 99.9741L80.8259 100.729L80.0694 101.484V106.013L80.8259 106.768L80.0694 107.522V109.032L83.8518 113.561V109.032L83.0953 108.277L83.8518 107.522L84.6083 94.6902L85.3648 107.522L86.1213 108.277L85.3648 109.032V117.335L100.495 173.193V114.316L110.329 112.052L114.111 116.581L113.355 179.987L116.381 187.535V167.155L114.868 166.4L119.407 158.851L120.163 143.755L120.92 158.851L123.946 160.361L126.972 169.419H125.459V191.309H136.05V183.761H134.537L136.05 182.251V179.609H140.589L141.625 180.915V182.629L142.835 183.761H141.322V191.309H206.381V186.026H204.868L206.381 184.516V179.987H210.163L210.92 180.742V184.516L212.433 186.026H210.92V191.309H235.884V189.324H235.127V187.535H235.884V183.27H237.397V187.747H238.153V189.128H237.397V195.084L245.718 209.426H265.584V194.986H264.653V193.574H263.897V192.819H263.14V190.555H261.627V189.045H260.871V129.413H259.047C259.047 129.413 263.897 130.168 269.192 94.6902V90.7424H268.436V89.4064H269.283L269.948 75.0645L270.705 89.4064H271.461V90.8632H270.705V94.6902C270.705 94.6902 272.218 106.013 272.974 106.768H279.026L280.539 97.7096L281.296 103.748L283.565 99.9741L285.835 86.387L286.591 93.1806L291.887 81.1032L292.643 72.7999L293.4 78.8386L295.669 75.8193V68.2709H298.763L301.721 62.9871V55.2122L302.478 60.7225L303.991 55.4387V53.2572H302.568V50.9096H303.991L305.504 26L306.26 50.9096H307.773V53.3704H306.26V55.4387L308.53 62.9871L316.851 80.3483L317.607 74.3096L318.364 83.3677L323.659 93.9354L324.416 88.6515L325.929 98.4644L328.198 102.239H329.711L330.468 96.9548L331.224 102.239H335.763V100.125H338.789V115.675L341.059 99.2193V95.2941H340.302V93.9354H341.059L341.815 78.8386L342.572 93.9354H343.328V95.2941H342.572V99.2193C342.572 99.2193 346.354 125.639 350.893 130.922H349.38V189.8H348.624V191.309H347.111V192.819H346.354V195.084H345.598V244.903H380.51L381.153 237.355L381.909 246.413L384.935 249.432L385.692 242.638L386.448 251.697L392.5 257.735L406.117 229.806L406.873 216.219L407.63 229.806L417.464 250.187H420.49L421.247 237.355L422.76 246.413H425.029L425.786 242.638L426.542 246.413H429.568C429.568 246.413 431.081 252.451 432.594 253.206V243.393H431.081L436.656 230.938L437.133 223.768L437.889 229.051L444.698 212.445L445.454 201.122L446.211 212.445L453.776 229.051L454.532 226.032L455.289 232.071L459.828 240.374H459.071V248.677L466.636 246.413L467.393 240.374L468.149 246.413L475.714 253.206L477.227 250.942V247.266H477.983L490.087 223.013V208.671H487.061V207.161H490.087V203.387H490.844V207.161H493.87V208.769L490.844 208.671V223.013L505.217 250.187L506.73 248.677L507.487 243.393L508.243 248.677L510.513 251.697V260.166L512.026 257.735L512.782 250.942L513.538 257.735L516.564 262.264V272.077L518.834 275.096L517.321 277.361V279.626H521.217L522.616 285.664C522.616 285.664 529.425 287.929 529.425 296.232H532.693V299.349H534.72L533.26 300.814L533.207 304.535H534.72L536.611 306.422L535.098 307.932V321.896H539.373V327.46C539.373 327.46 545.311 324.161 548.337 324.161C551.363 324.161 556.658 317.367 556.658 317.367L557.415 286.419L558.928 317.367C558.928 317.367 561.954 324.161 568.006 324.916C574.058 325.671 578.597 330.2 578.597 333.974H574.814V357.374H729.895V399.645H740.486V391.341Z" fill="#263546"/>
<path d="M306.26 87.8967V91.603L303.234 99.9741V96.9548H301.721V102.993L300.208 107.523V106.013H298.695V134.976H300.095L300.208 110.542L307.017 92.4258V87.8967H306.26Z" fill="#F9EC93"/>
<path d="M297.182 165.645L295.669 176.213L285.835 203.387H284.322V205.651H285.835V210.935H287.665V205.651H286.591V203.387H288.104L297.939 176.213L297.182 165.645Z" fill="#F9EC93"/>
<path d="M259.358 239.619H256.733L258.601 238.109L266.923 213.955L267.679 206.406L268.436 213.955L259.358 239.619Z" fill="#F9EC93"/>
<path d="M224.937 198.48L224.181 206.029C224.181 206.029 221.155 212.822 221.155 212.068C221.155 211.313 219.642 205.274 219.642 205.274L218.681 212.068V215.208L220.398 216.597V218.861L215.859 220.371L212.833 225.655L213.59 226.409V239.997H215.103V225.655L214.346 224.9L216.616 221.126L221.155 219.616V215.842L219.642 214.332V212.822H221.911L225.694 206.029L224.937 198.48Z" fill="#F9EC93"/>
<path d="M189.518 198.662L188.762 206.21C188.762 206.21 185.736 213.004 185.736 212.249C185.736 211.494 184.223 205.455 184.223 205.455L183.262 212.249V215.389L185.01 216.717V218.982L180.471 220.492L177.445 225.775L178.201 226.53V240.117H179.714V225.775L178.958 225.021L181.227 221.246L185.766 219.737V215.963L184.253 214.453V212.943H186.523L190.305 206.15L189.518 198.662Z" fill="#F9EC93"/>
<path d="M153.963 198.662L153.207 206.21C153.207 206.21 150.181 213.004 150.181 212.249C150.181 211.494 148.668 205.455 148.668 205.455L147.707 212.249V215.389L149.455 216.717V218.982L144.916 220.492L141.89 225.775L142.646 226.53V240.117H144.159V225.775L143.403 225.021L145.672 221.246L150.211 219.737V215.963L148.698 214.453V212.943H150.968L154.75 206.15L153.963 198.662Z" fill="#F9EC93"/>
<path d="M277.135 233.203L280.161 224.145L280.918 218.861V224.145L277.892 233.203V242.261H277.135V233.203Z" fill="#F9EC93"/>
<path d="M298.317 233.958L301.343 224.9L302.099 219.616V224.9L299.073 233.958V239.619L298.317 237.83V233.958Z" fill="#F9EC93"/>
<path d="M295.291 229.429L294.247 234.026L289.239 240.751L288.483 238.487L287.726 243.016V257.841L288.483 258.113V284.532H289.731V257.358L288.944 257.078V242.261L295.291 233.958V229.429Z" fill="#F9EC93"/>
<path d="M307.395 238.487L303.612 246.035H304.649L308.151 239.996L307.395 238.487Z" fill="#F9EC93"/>
<path d="M281.508 238.487L277.725 246.035H278.754L282.264 239.996L281.508 238.487Z" fill="#F9EC93"/>
<path d="M355.054 260.377C355.054 260.377 357.323 254.338 357.323 253.584C357.323 252.829 358.08 243.016 358.08 243.016V253.584L355.81 259.622H357.323V260.377H355.81L357.323 265.661H356.567" fill="#F9EC93"/>
<path d="M324.794 259.622C324.794 259.622 327.064 253.584 327.064 252.829C327.064 252.074 327.82 242.261 327.82 242.261V252.829L325.551 258.867H327.064V259.622H325.551L327.064 264.906H326.307" fill="#F9EC93"/>
<path d="M336.141 271.7H334.628V270.945H335.385C335.385 270.945 342.193 260.377 342.193 259.622C342.193 258.868 343.706 252.074 343.706 252.074V259.622L336.141 271.7Z" fill="#F9EC93"/>
<path d="M367.914 271.7H366.401V270.945H367.157C367.157 270.945 373.966 260.377 373.966 259.622C373.966 258.868 375.479 252.074 375.479 252.074V259.622L367.914 271.7Z" fill="#F9EC93"/>
<path d="M258.223 220.371C258.223 220.371 260.492 214.332 260.492 213.577C260.492 212.822 261.249 203.01 261.249 203.01V213.577L258.979 219.616H260.492V220.371H258.979L260.492 225.655H259.736" fill="#F9EC93"/>
<path d="M274.109 220.371C274.109 220.371 276.379 214.332 276.379 213.577C276.379 212.822 277.135 203.01 277.135 203.01V213.577L274.866 219.616H276.379V220.371H274.866L276.379 225.655H275.622" fill="#F9EC93"/>
<path d="M322.525 117.713C322.525 117.713 324.794 111.674 324.794 110.919C324.794 110.164 325.551 100.352 325.551 100.352V110.919L323.281 116.958H324.794V117.713H323.281L324.794 122.997H324.038" fill="#F9EC93"/>
<path d="M408.764 246.035V247.613L404.49 254.338H405.474C405.738 265.661 405.738 267.171 405.738 267.171H404.49V270.749H406.495V253.584L410.277 247.545V246.035H408.764Z" fill="#F9EC93"/>
<path d="M314.203 106.39C314.203 106.39 316.473 100.351 316.473 99.5967C316.473 98.8418 317.229 89.0289 317.229 89.0289V99.5967L314.96 105.635H316.473V106.39H314.96L316.473 111.674H315.716" fill="#F9EC93"/>
<path d="M291.509 105.635C291.509 105.635 293.778 99.5967 293.778 98.8419C293.778 98.0871 294.534 88.2742 294.534 88.2742V98.8419L292.265 104.881H293.778V105.635H292.265L293.778 110.919H293.022" fill="#F9EC93"/>
<path d="M284.7 114.693C284.7 114.693 286.97 108.655 286.97 107.9C286.97 107.145 287.726 97.3322 287.726 97.3322V107.9L285.457 113.939H286.97V114.693H285.457L286.97 119.977H286.213" fill="#F9EC93"/>
<path d="M383.044 259.622C383.044 259.622 385.313 253.584 385.313 252.829C385.313 252.595 385.389 251.478 385.487 250.051C386.07 251.319 386.07 251.319 386.07 251.319V252.829L383.8 258.868H385.313V259.622H383.8L385.313 264.906H384.557" fill="#F9EC93"/>
<path d="M130.376 211.313H128.863L131.889 206.784H132.645L130.376 211.313Z" fill="#F9EC93"/>
<path d="M172.777 211.313H171.264L174.29 206.784H175.047L172.777 211.313Z" fill="#F9EC93"/>
<path d="M206.638 212.068H205.125L208.151 207.539H208.907L206.638 212.068Z" fill="#F9EC93"/>
<path d="M134.915 224.145H132.646V221.88L137.941 217.351L139.287 219.427L134.915 224.145Z" fill="#F9EC93"/>
<path d="M170.47 224.9H168.2V222.635L173.496 218.106L174.842 220.182L170.47 224.9Z" fill="#F9EC93"/>
<path d="M205.268 225.655H202.999V223.39L208.294 218.861L209.641 220.937L205.268 225.655Z" fill="#F9EC93"/>
<path d="M239.311 225.655H237.041V223.39L242.337 218.861L243.683 220.937L239.311 225.655Z" fill="#F9EC93"/>
<path d="M249.901 231.693C249.901 231.693 252.171 225.655 252.171 224.9C252.171 224.145 252.927 214.332 252.927 214.332V224.9L250.658 230.938H252.171V231.693H250.658L252.171 236.977H251.414" fill="#F9EC93"/>
<path d="M339.167 116.203L334.628 132.055H336.058L336.141 135.829H334.628V142.826H335.914L336.141 188.668H336.898V190.751H337.76V193.197H339.167V194.442H340.279V196.661H341.437V192.819H339.924V189.422H338.033V187.203H337.654V129.79L339.167 116.203Z" fill="#F9EC93"/>
<path d="M443.563 258.867L441.293 278.493H442.428V282.464C442.428 282.464 443.593 283.415 443.941 282.464C444.289 281.513 443.941 276.855 443.941 276.855H442.693L443.563 258.867Z" fill="#F9EC93"/>
<path d="M433.729 256.603L430.703 267.925C430.703 267.925 432.216 267.171 432.216 267.925V279.414L435.242 279.248V277.64L433.729 277.738V266.416H432.216L433.729 256.603Z" fill="#F9EC93"/>
<path d="M436.755 261.887V240.751H434.485L444.698 212.445H445.341L437.511 239.242H438.268V261.887L448.858 253.584L452.641 260.377L448.858 254.338L438.268 263.396L436.755 261.887Z" fill="#F9EC93"/>
<path d="M447.345 226.409C447.345 227.164 444.319 236.977 444.319 236.977H445.832V243.771H446.846C446.589 243.771 446.846 236.222 446.846 236.222H445.832L447.345 226.409Z" fill="#F9EC93"/>
<path d="M495.004 241.506C495.004 242.261 491.979 252.074 491.979 252.074H493.492V258.867H494.505C494.248 258.867 494.505 251.319 494.505 251.319H493.492L495.004 241.506Z" fill="#F9EC93"/>
<path d="M505.595 251.319C505.595 252.074 502.569 261.887 502.569 261.887H504.082V268.68H505.096C504.839 268.68 505.096 261.132 505.096 261.132H504.082L505.595 251.319Z" fill="#F9EC93"/>
<path d="M460.962 282.267L467.771 257.358L462.475 280.758H463.988L464.367 292.503H463.232V282.267H460.962Z" fill="#F9EC93"/>
<path d="M476.97 257.358L482.144 249.055L479.118 255.848V261.887H477.779V257.358H476.97Z" fill="#F9EC93"/>
<path d="M182.649 270.087H143.043V343.479H182.649V270.087Z" fill="#F9EC93"/>
<path d="M227.915 270.087H188.309V343.479H227.915V270.087Z" fill="#F9EC93"/>
<path d="M171.222 282.014C171.222 282.014 169.429 283.284 170.128 284.197C170.128 284.376 170.493 284.924 170.128 284.924C169.764 284.924 169.584 285.288 169.764 285.652C169.584 285.831 168.305 285.652 168.126 287.471C166.483 288.198 163.566 299.111 163.202 306.554C162.837 313.996 158.104 330.014 158.104 330.014C158.104 330.014 162.747 334.105 164.026 331.743C164.359 331.527 164.755 331.427 165.151 331.46C165.547 331.492 165.92 331.655 166.214 331.922C166.214 331.922 166.028 336.472 166.943 337.379C166.214 337.927 166.028 338.106 166.393 339.382C165.849 339.925 166.028 340.11 165.664 340.11C165.299 340.11 164.935 339.746 164.391 341.016C164.391 341.016 161.474 342.472 160.381 343.927C159.102 344.29 157.643 344.833 156.914 346.837C155.361 347.552 153.991 348.608 152.904 349.926C151.631 350.29 151.631 349.926 151.266 351.202C150.537 351.202 150.352 352.108 148.714 351.93C147.515 352.51 146.409 353.266 145.433 354.172C145.942 355.55 146.76 356.794 147.824 357.81C148.083 357.65 148.328 357.466 148.553 357.261C148.553 357.261 150.011 363.821 155.48 363.821C157.488 363.821 153.687 361.823 153.687 360.183C153.814 358.696 154.121 357.231 154.601 355.818C154.601 355.818 156.789 356.73 169.728 345.084C169.728 349.449 170.092 350.904 169.728 352.174C169.363 353.444 168.102 359.449 169.369 361.453C169.045 363.069 168.982 364.726 169.184 366.361H172.226L172.28 365.455C172.28 365.455 172.644 366.725 178.292 366.725C181.209 366.725 182.667 366.182 182.667 365.455C182.667 364.727 180.976 364.31 178.603 364.31C177.509 364.31 176.416 363.397 175.686 362.127C175.322 361.4 176.78 365.944 177.145 349.395C177.33 346.485 178.059 346.849 177.33 345.221C177.874 344.129 178.968 337.766 177.509 336.496C177.718 336.086 177.795 335.621 177.729 335.166C177.664 334.71 177.46 334.286 177.145 333.95C176.416 333.222 178.238 331.767 178.238 331.767C178.238 331.767 177.874 321.218 178.424 319.578C178.974 317.938 182.249 306.124 175.872 289.027C175.782 288.731 175.72 288.428 175.686 288.121H176.236C176.236 288.121 176.051 287.208 176.601 287.029L176.236 286.666V285.753C176.909 286.008 177.616 286.161 178.334 286.206C179.482 286.206 179.332 284.847 179.332 284.847C179.332 284.847 179.882 284.662 179.697 284.483C179.882 284.483 180.247 283.934 180.061 283.755C179.876 283.576 180.426 283.028 180.426 283.028C180.426 283.028 181.155 283.207 181.155 282.664C181.155 282.121 180.247 281.024 180.611 280.481C180.976 279.939 181.34 279.205 181.155 276.844C180.976 275.752 181.884 275.752 181.34 275.025C180.796 274.297 176.416 270.111 172.77 273.021C169.124 275.931 171.132 281.948 171.132 281.948" fill="#263546"/>
<path d="M174.593 288.675C175.322 288.675 180.247 294.495 179.517 302.314C180.061 302.677 179.882 303.226 179.882 303.769C180.426 304.317 181.705 304.496 182.069 305.951C182.402 305.97 182.716 306.111 182.951 306.346C183.186 306.582 183.325 306.896 183.342 307.227C183.892 307.77 187.353 309.953 188.446 310.138C189.54 310.322 190.634 310.138 190.837 310.317C191.04 310.495 191.016 311.408 191.016 311.408C191.016 311.408 192.11 310.317 193.933 311.772C194.483 312.135 194.662 312.32 194.118 313.412C193.574 314.503 193.933 315.23 191.727 314.682C190.819 314.503 190.819 313.412 191.548 313.775C190.998 313.59 190.819 313.775 190.819 313.775C190.819 313.775 190.998 315.773 190.269 315.952C189.54 316.131 187.538 315.773 187.173 315.409C187.067 315.287 186.995 315.139 186.962 314.98C186.93 314.822 186.939 314.657 186.988 314.503C186.988 314.503 183.163 314.091 183.073 313.113C182.069 312.863 176.051 310.865 175.686 308.343C175.424 306.464 174.593 288.675 174.593 288.675Z" fill="#263546"/>
<path d="M189.659 320.228L189.755 327.229L190.299 328.684L194.859 328.505L195.767 320.317H196.831V320.138L194.733 320.049C194.388 319.72 193.937 319.526 193.46 319.5V317.682C193.46 317.682 193.825 317.682 193.825 317.503C193.825 317.443 193.514 317.383 193.096 317.342C193.042 317.342 192.97 314.777 192.911 314.771C192.851 314.765 192.911 317.324 192.869 317.324C192.571 317.299 192.271 317.289 191.972 317.294C191.942 317.294 192.217 314.044 192.181 314.044C192.146 314.044 191.805 317.294 191.769 317.294C191.291 317.294 190.914 317.371 190.914 317.503C190.914 317.634 191.273 317.682 191.273 317.682V319.5C191.273 319.5 189.994 319.685 189.815 320.049H188.9V320.24L189.659 320.228Z" fill="#263546"/>
<path d="M190.729 321.14L192.731 324.778L195.104 321.14H190.729Z" fill="#F9EC93"/>
<path d="M190.544 321.319L190.909 327.867L192.552 325.142L190.544 321.319Z" fill="#F9EC93"/>
<path d="M191.094 328.046L192.731 325.321L194.375 328.046H191.094Z" fill="#F9EC93"/>
<path d="M195.104 321.576L192.917 325.029L194.554 327.682L195.104 321.576Z" fill="#FFED94"/>
<path d="M192.731 327.956C193.184 327.956 193.55 327.591 193.55 327.139C193.55 326.688 193.184 326.322 192.731 326.322C192.279 326.322 191.913 326.688 191.913 327.139C191.913 327.591 192.279 327.956 192.731 327.956Z" fill="#FFC45C"/>
<path d="M192.588 326.841C192.792 326.841 193.001 327.789 192.792 327.789C192.582 327.789 192.588 327.98 192.379 327.789C192.169 327.599 192.379 326.841 192.588 326.841Z" fill="#FFA300"/>
<path d="M192.576 326.841C192.684 326.841 192.792 327.39 192.684 327.39C192.576 327.39 192.576 327.497 192.468 327.39C192.361 327.283 192.468 326.841 192.576 326.841Z" fill="#FFF7C5"/>
<path d="M185.631 361.024C215.803 361.024 240.263 336.618 240.263 306.512C240.263 276.406 215.803 252 185.631 252C155.459 252 131 276.406 131 306.512C131 336.618 155.459 361.024 185.631 361.024Z" stroke="#58646D" stroke-width="8" stroke-miterlimit="10"/>
<path d="M229.666 342.138C241.954 346.604 246.048 344.934 247.369 341.315C253.997 343.7 322.075 369.796 322.075 369.796C332.128 373.452 338.176 361.352 326.982 356.348C316.947 351.864 252.975 329.459 252.975 329.459C253.614 326.847 255.413 320.383 240.92 316.554L229.666 342.138Z" fill="#58646D"/>
<path d="M173.421 259.621L170.463 267.702C170.463 267.702 202.27 260.903 220.863 274.542C197.793 255.858 188.655 258.846 173.421 259.621Z" fill="#58646D"/>
</g>
<path d="M108.003 374.047C108.208 374.223 108.311 374.428 108.311 374.662C108.311 375.248 107.842 375.541 106.904 375.541C106.729 375.541 106.45 375.512 106.069 375.453C105.718 375.395 105.439 375.365 105.234 375.365C103.857 375.365 102.466 376.713 101.06 379.408C95.3467 390.482 91.626 404.267 89.8975 420.761C90.5713 419.501 91.4648 417.816 92.5781 415.707C92.9004 415.062 93.2959 414.74 93.7646 414.74C94.3213 414.74 94.5996 415.106 94.5996 415.839C94.5996 416.19 94.4971 416.601 94.292 417.069C93.0029 420.116 91.8164 424.496 90.7324 430.209C90.4688 431.469 89.8975 432.099 89.0186 432.099C88.0225 432.099 86.5137 431.337 84.4922 429.813C83.5254 429.081 82.9688 428.495 82.8223 428.056C82.6465 427.646 82.6611 426.796 82.8662 425.507C83.9209 419.149 85.2832 411.986 86.9531 404.018C88.8867 394.906 90.293 389.53 91.1719 387.89C88.0957 391.522 84.3164 396.854 79.834 403.886C75.4395 410.8 71.6016 417.377 68.3203 423.617C68.9062 425.434 69.1992 426.796 69.1992 427.704C69.1992 428.847 68.2324 430.312 66.2988 432.099C65.3027 433.036 64.6436 433.505 64.3213 433.505C63.999 433.505 63.1348 432.333 61.7285 429.989C61.1133 428.993 60.8057 428.202 60.8057 427.616C60.8057 427.206 61.2305 426.21 62.0801 424.628C60.2051 417.655 56.792 409.159 51.8408 399.14C48.6768 407.108 45.4688 414.374 42.2168 420.937C44.3262 423.31 45.3809 424.906 45.3809 425.727C45.3809 426.371 44.6484 426.781 43.1836 426.957C40.1074 427.309 37.5293 428.891 35.4492 431.703C35.2734 432.611 34.834 433.065 34.1309 433.065C33.1348 433.065 31.5967 432.172 29.5166 430.385C28.8721 429.828 28.5498 429.374 28.5498 429.022C28.5498 428.7 28.8135 428.305 29.3408 427.836C31.3037 426.137 33.5449 424.496 36.0645 422.914C41.5137 413.861 45.9521 404.34 49.3799 394.35C45.8057 386.498 41.3672 381.02 36.0645 377.914C35.1855 377.387 34.3506 377.123 33.5596 377.123C32.4463 377.123 31.2744 377.694 30.0439 378.837C28.9014 380.067 27.7588 381.312 26.6162 382.572C25.9717 383.305 25.3125 383.671 24.6387 383.671C24.1113 383.671 23.8477 383.407 23.8477 382.88C23.8477 382.616 23.9355 382.309 24.1113 381.957C28.0664 374.018 31.8457 370.121 35.4492 370.268C39.7266 370.414 45.2783 375.717 52.1045 386.176C53.7744 382.367 54.6094 378.925 54.6094 375.849C54.6094 374.267 54.8438 373.476 55.3125 373.476C55.752 373.476 56.7773 374.105 58.3887 375.365C58.8574 375.746 59.0771 376.537 59.0479 377.738C58.9893 379.262 57.627 383.7 54.9609 391.054C60.1172 401.073 64.0283 410.214 66.6943 418.476C77.0361 401.308 86.3379 387.904 94.5996 378.266C95.625 375.922 96.8848 373.607 98.3789 371.322C99.0234 370.326 99.7998 369.828 100.708 369.828C102.085 369.828 104.517 371.234 108.003 374.047ZM132.788 400.59C128.716 419.369 124.893 433.417 121.318 442.733C114.404 460.839 106.465 469.892 97.5 469.892C92.2559 469.892 86.6162 467.035 80.5811 461.322C80.0537 460.824 79.79 460.297 79.79 459.74C79.79 458.861 80.2002 458.422 81.0205 458.422C81.4307 458.422 81.8262 458.583 82.207 458.905C86.9824 462.978 91.2451 465.014 94.9951 465.014C101.88 465.014 108.135 459.271 113.76 447.787C118.184 438.793 122.036 426.723 125.317 411.576C125.522 410.492 125.859 408.837 126.328 406.61C123.252 411.62 119.81 416.557 116.001 421.42C112.339 426.107 109.453 429.33 107.344 431.088C106.172 432.055 105.234 432.538 104.531 432.538C103.975 432.538 103.403 432.23 102.817 431.615C102.202 430.824 101.572 430.048 100.928 429.286C100.635 428.935 100.488 428.612 100.488 428.319C100.488 428.29 100.488 428.261 100.488 428.231C100.547 427.88 100.811 427.631 101.279 427.484C102.686 425.58 104.004 421.464 105.234 415.136C106.172 410.155 106.816 405.424 107.168 400.941C107.227 399.887 107.095 399.359 106.772 399.359C106.685 399.359 105.996 399.887 104.707 400.941C102.656 402.67 101.543 403.534 101.367 403.534C100.957 403.534 100.752 403.329 100.752 402.919C100.752 402.714 100.84 402.509 101.016 402.304C101.514 401.688 102.627 400.15 104.355 397.689C105.908 395.492 106.948 394.394 107.476 394.394C107.886 394.394 108.442 394.569 109.146 394.921C110.64 394.687 111.475 394.569 111.65 394.569C112.646 394.569 113.145 395.331 113.145 396.854C113.145 399.403 112.412 404.398 110.947 411.84C109.482 419.252 108.281 424.042 107.344 426.21C110.273 423.896 114.082 419.354 118.77 412.587C123.34 405.995 126.182 401.029 127.295 397.689C127.354 395.727 127.778 394.745 128.569 394.745C129.185 394.745 130.327 395.375 131.997 396.635C132.935 397.338 133.198 398.656 132.788 400.59ZM158.013 395.8C158.013 397.118 157.661 399.228 156.958 402.128C156.694 403.124 156.401 403.769 156.079 404.062C155.933 404.208 155.435 404.428 154.585 404.721C153.501 405.131 152.827 405.336 152.563 405.336C152.124 405.336 151.904 405.043 151.904 404.457C151.904 404.135 151.963 403.71 152.08 403.183C152.783 400.282 153.047 398.275 152.871 397.162C152.725 396.02 153.062 395.302 153.882 395.009C155.317 394.276 156.24 393.91 156.65 393.91C157.559 393.91 158.013 394.54 158.013 395.8ZM150.981 421.024C151.069 424.54 149.121 426.942 145.137 428.231C144.639 429.462 144.17 430.312 143.73 430.78C143.057 431.483 142.061 431.894 140.742 432.011C139.893 432.069 138.984 432.025 138.018 431.879C136.289 431.615 134.165 431.293 131.646 430.912C130.942 430.795 130.518 430.37 130.371 429.638C130.488 428.847 131.309 428.378 132.832 428.231C134.912 428.085 137.988 427.719 142.061 427.133C143.584 426.781 144.668 425.917 145.312 424.54C145.693 423.837 145.884 422.973 145.884 421.947C145.884 420.102 144.961 416.85 143.115 412.191C141.299 407.65 140.449 404.618 140.566 403.095C140.801 399.433 144.185 396.884 150.718 395.448C151.362 395.302 151.685 395.536 151.685 396.151C151.685 396.503 151.45 396.781 150.981 396.986C147.817 398.363 146.235 400.062 146.235 402.084C146.235 402.875 146.382 403.871 146.675 405.072C146.968 406.244 147.847 409.086 149.312 413.598C150.396 416.85 150.952 419.325 150.981 421.024ZM184.028 374.926C184.849 375.365 185.259 375.863 185.259 376.42C185.259 376.801 184.98 376.991 184.424 376.991C184.307 376.991 184.116 376.977 183.853 376.947C183.618 376.889 183.442 376.859 183.325 376.859C182.212 376.859 180.864 378.075 179.282 380.507C177.876 382.675 175.928 387.392 173.438 394.657C173.203 395.302 173.115 395.683 173.174 395.8C173.262 396.005 173.643 396.122 174.316 396.151C176.045 396.298 178.359 396.239 181.26 395.976C182.256 395.888 182.754 396.312 182.754 397.25C182.754 397.895 182.373 398.29 181.611 398.437C180.996 398.524 177.759 398.788 171.899 399.228C168.384 409.511 166.245 418.212 165.483 425.331C165.454 425.712 165.439 426.049 165.439 426.342C165.439 427.338 165.688 427.836 166.187 427.836C166.978 427.836 169.365 425.917 173.35 422.079C173.818 421.61 174.272 421.376 174.712 421.376C175.093 421.376 175.327 421.537 175.415 421.859C175.503 422.211 175.371 422.621 175.02 423.09C172.646 426.225 170.317 428.891 168.032 431.088C167.065 431.996 166.26 432.45 165.615 432.45C164.971 432.45 163.975 431.938 162.627 430.912C160.957 430.473 160.122 429.594 160.122 428.275C160.122 428.07 160.151 427.836 160.21 427.572C161.294 420.014 163.418 410.712 166.582 399.667C165.029 399.462 163.623 399.257 162.363 399.052C161.807 398.964 161.528 398.612 161.528 397.997C161.528 397.323 161.821 396.913 162.407 396.767C162.993 396.62 164.077 396.298 165.659 395.8C166.626 395.478 167.563 395.038 168.472 394.481C171.606 384.784 174.067 378.5 175.854 375.629C176.88 373.988 177.979 373.168 179.15 373.168C180.264 373.168 181.89 373.754 184.028 374.926ZM203.145 418.476C196.025 427.587 191.016 432.143 188.115 432.143C186.738 432.143 184.995 431.19 182.886 429.286C180.688 428.261 179.59 426.884 179.59 425.155C179.59 424.833 179.619 424.496 179.678 424.145C180.205 420.131 181.274 415.692 182.886 410.829C181.802 410.272 181.26 409.745 181.26 409.247C181.26 408.837 181.567 408.632 182.183 408.632C182.651 408.632 183.135 408.764 183.633 409.027C186.24 403.168 188.584 399.008 190.664 396.547C192.012 394.906 193.228 394.086 194.312 394.086C194.81 394.086 196.04 394.511 198.003 395.36C197.856 394.481 198.105 393.969 198.75 393.822C198.779 393.822 199.468 393.822 200.815 393.822C202.075 393.822 202.705 394.042 202.705 394.481C202.705 394.569 202.661 394.818 202.573 395.229C202.485 395.639 202.441 396.02 202.441 396.371C202.441 397.426 202.456 398.729 202.485 400.282C202.515 401.835 202.529 402.875 202.529 403.402C202.529 407.035 201.533 409.569 199.541 411.005C197.725 412.323 195.674 412.982 193.389 412.982C192.188 412.982 190.195 412.66 187.412 412.016C186.914 412.924 186.357 414.696 185.742 417.333C184.922 420.673 184.541 423.632 184.6 426.21C184.629 427.733 185.112 428.495 186.05 428.495C186.401 428.495 186.855 428.407 187.412 428.231C190.811 427.03 195.542 423.368 201.606 417.245C201.987 416.864 202.368 416.674 202.749 416.674C203.306 416.674 203.584 416.938 203.584 417.465C203.584 417.787 203.438 418.124 203.145 418.476ZM198.003 399.052C198.003 397.909 197.754 397.338 197.256 397.338C196.934 397.338 196.465 397.572 195.85 398.041C192.979 400.355 190.459 404.413 188.291 410.214C188.877 410.302 189.902 410.39 191.367 410.478C193.74 410.565 195.513 410.023 196.685 408.852C197.563 407.973 198.047 406.522 198.135 404.501C198.047 405.995 198.003 404.179 198.003 399.052ZM202.793 386.703C202.881 386.908 202.925 387.113 202.925 387.318C202.925 387.963 202.617 388.285 202.002 388.285C201.592 388.285 201.196 388.036 200.815 387.538C198.735 384.931 196.553 382.733 194.268 380.946C193.037 380.009 192.026 379.54 191.235 379.54C190.034 379.54 189.434 379.145 189.434 378.354C189.434 378.178 189.565 378.031 189.829 377.914L192.334 376.728C192.861 376.493 193.33 376.376 193.74 376.376C194.531 376.376 195.381 376.859 196.289 377.826C199.336 381.02 201.504 383.979 202.793 386.703ZM234.39 397.953C234.39 401.791 233.877 405.453 232.852 408.939C232.529 409.994 232.09 410.521 231.533 410.521C231.123 410.521 230.215 409.936 228.809 408.764C228.105 408.178 227.93 407.343 228.281 406.259C229.102 403.593 229.512 401.454 229.512 399.843C229.512 399.286 229.395 399.008 229.16 399.008C228.809 399.008 228.237 399.535 227.446 400.59C221.353 408.529 216.797 417.436 213.779 427.309C212.812 430.443 211.992 432.011 211.318 432.011C211.055 432.011 209.897 431.498 207.847 430.473C206.851 429.975 206.514 429.008 206.836 427.572C209.15 417.436 211.641 408.881 214.307 401.908C212.139 404.193 210.762 405.761 210.176 406.61C209.941 406.962 209.619 407.138 209.209 407.138C208.711 407.138 208.462 406.918 208.462 406.479C208.462 406.215 208.579 405.922 208.813 405.6C210.249 403.871 212.168 401.234 214.57 397.689C215.303 396.4 216.035 395.756 216.768 395.756C217.295 395.756 218.364 396.166 219.976 396.986C220.884 397.455 221.03 398.085 220.415 398.876C219.771 399.726 218.555 402.729 216.768 407.885C215.068 412.895 213.896 416.82 213.252 419.662C217.236 410.785 221.763 402.948 226.831 396.151C227.798 394.862 228.574 394.218 229.16 394.218C229.688 394.218 230.405 394.569 231.313 395.272C232.544 395.419 233.32 395.609 233.643 395.844C234.141 396.195 234.39 396.898 234.39 397.953ZM257.812 418.476C250.693 427.587 245.684 432.143 242.783 432.143C241.406 432.143 239.663 431.19 237.554 429.286C235.356 428.261 234.258 426.884 234.258 425.155C234.258 424.833 234.287 424.496 234.346 424.145C234.873 420.131 235.942 415.692 237.554 410.829C236.47 410.272 235.928 409.745 235.928 409.247C235.928 408.837 236.235 408.632 236.851 408.632C237.319 408.632 237.803 408.764 238.301 409.027C240.908 403.168 243.252 399.008 245.332 396.547C246.68 394.906 247.896 394.086 248.979 394.086C249.478 394.086 250.708 394.511 252.671 395.36C252.524 394.481 252.773 393.969 253.418 393.822C253.447 393.822 254.136 393.822 255.483 393.822C256.743 393.822 257.373 394.042 257.373 394.481C257.373 394.569 257.329 394.818 257.241 395.229C257.153 395.639 257.109 396.02 257.109 396.371C257.109 397.426 257.124 398.729 257.153 400.282C257.183 401.835 257.197 402.875 257.197 403.402C257.197 407.035 256.201 409.569 254.209 411.005C252.393 412.323 250.342 412.982 248.057 412.982C246.855 412.982 244.863 412.66 242.08 412.016C241.582 412.924 241.025 414.696 240.41 417.333C239.59 420.673 239.209 423.632 239.268 426.21C239.297 427.733 239.78 428.495 240.718 428.495C241.069 428.495 241.523 428.407 242.08 428.231C245.479 427.03 250.21 423.368 256.274 417.245C256.655 416.864 257.036 416.674 257.417 416.674C257.974 416.674 258.252 416.938 258.252 417.465C258.252 417.787 258.105 418.124 257.812 418.476ZM252.671 399.052C252.671 397.909 252.422 397.338 251.924 397.338C251.602 397.338 251.133 397.572 250.518 398.041C247.646 400.355 245.127 404.413 242.959 410.214C243.545 410.302 244.57 410.39 246.035 410.478C248.408 410.565 250.181 410.023 251.353 408.852C252.231 407.973 252.715 406.522 252.803 404.501C252.715 405.995 252.671 404.179 252.671 399.052ZM298.374 395.8C298.374 397.118 298.022 399.228 297.319 402.128C297.056 403.124 296.763 403.769 296.44 404.062C296.294 404.208 295.796 404.428 294.946 404.721C293.862 405.131 293.188 405.336 292.925 405.336C292.485 405.336 292.266 405.043 292.266 404.457C292.266 404.135 292.324 403.71 292.441 403.183C293.145 400.282 293.408 398.275 293.232 397.162C293.086 396.02 293.423 395.302 294.243 395.009C295.679 394.276 296.602 393.91 297.012 393.91C297.92 393.91 298.374 394.54 298.374 395.8ZM291.343 421.024C291.431 424.54 289.482 426.942 285.498 428.231C285 429.462 284.531 430.312 284.092 430.78C283.418 431.483 282.422 431.894 281.104 432.011C280.254 432.069 279.346 432.025 278.379 431.879C276.65 431.615 274.526 431.293 272.007 430.912C271.304 430.795 270.879 430.37 270.732 429.638C270.85 428.847 271.67 428.378 273.193 428.231C275.273 428.085 278.35 427.719 282.422 427.133C283.945 426.781 285.029 425.917 285.674 424.54C286.055 423.837 286.245 422.973 286.245 421.947C286.245 420.102 285.322 416.85 283.477 412.191C281.66 407.65 280.811 404.618 280.928 403.095C281.162 399.433 284.546 396.884 291.079 395.448C291.724 395.302 292.046 395.536 292.046 396.151C292.046 396.503 291.812 396.781 291.343 396.986C288.179 398.363 286.597 400.062 286.597 402.084C286.597 402.875 286.743 403.871 287.036 405.072C287.329 406.244 288.208 409.086 289.673 413.598C290.757 416.85 291.313 419.325 291.343 421.024ZM333.047 399.14C329.15 406.376 326.235 414.872 324.302 424.628C325.122 423.192 326.118 421.361 327.29 419.135C327.437 418.725 327.671 418.52 327.993 418.52C328.433 418.52 328.652 418.798 328.652 419.354C328.652 419.53 328.608 419.721 328.521 419.926C326.646 424.203 325.415 427.499 324.829 429.813C324.478 431.278 324.009 432.011 323.423 432.011C322.837 432.011 321.694 431.439 319.995 430.297C319.087 429.652 318.779 428.51 319.072 426.869C320.303 420.482 321.782 414.931 323.511 410.214C317.856 419.413 313.11 426.195 309.272 430.561C308.423 431.527 307.5 432.011 306.504 432.011C305.684 432.011 304.717 431.674 303.604 431C301.582 430.648 300.571 429.594 300.571 427.836C300.571 427.514 300.601 427.162 300.659 426.781C301.392 418.402 302.915 411.444 305.229 405.907C304.731 406.376 303.984 407.064 302.988 407.973C302.607 408.295 302.314 408.383 302.109 408.236C301.875 408.061 301.919 407.724 302.241 407.226C303.823 404.911 304.761 403.388 305.054 402.655C305.962 400.37 306.914 398.598 307.91 397.338C308.438 396.693 308.994 396.371 309.58 396.371C310.371 396.371 311.528 396.84 313.052 397.777C313.462 398.041 313.667 398.305 313.667 398.568C313.667 398.568 313.345 399.052 312.7 400.019C311.235 402.245 309.683 406.171 308.042 411.796C306.255 417.89 305.347 422.855 305.317 426.693C305.317 427.953 305.581 428.583 306.108 428.583C306.577 428.583 307.339 428.041 308.394 426.957C310.649 424.555 313.916 420.014 318.193 413.334C321.973 407.445 324.258 403.607 325.049 401.82C326.367 398.832 327.437 397.074 328.257 396.547C328.784 396.195 329.253 396.02 329.663 396.02C330.073 396.02 330.864 396.327 332.036 396.942C333.208 397.558 333.794 398.012 333.794 398.305C333.794 398.393 333.691 398.51 333.486 398.656C333.281 398.803 333.135 398.964 333.047 399.14ZM363.062 397.953C363.062 401.791 362.549 405.453 361.523 408.939C361.201 409.994 360.762 410.521 360.205 410.521C359.795 410.521 358.887 409.936 357.48 408.764C356.777 408.178 356.602 407.343 356.953 406.259C357.773 403.593 358.184 401.454 358.184 399.843C358.184 399.286 358.066 399.008 357.832 399.008C357.48 399.008 356.909 399.535 356.118 400.59C350.024 408.529 345.469 417.436 342.451 427.309C341.484 430.443 340.664 432.011 339.99 432.011C339.727 432.011 338.569 431.498 336.519 430.473C335.522 429.975 335.186 429.008 335.508 427.572C337.822 417.436 340.312 408.881 342.979 401.908C340.811 404.193 339.434 405.761 338.848 406.61C338.613 406.962 338.291 407.138 337.881 407.138C337.383 407.138 337.134 406.918 337.134 406.479C337.134 406.215 337.251 405.922 337.485 405.6C338.921 403.871 340.84 401.234 343.242 397.689C343.975 396.4 344.707 395.756 345.439 395.756C345.967 395.756 347.036 396.166 348.647 396.986C349.556 397.455 349.702 398.085 349.087 398.876C348.442 399.726 347.227 402.729 345.439 407.885C343.74 412.895 342.568 416.82 341.924 419.662C345.908 410.785 350.435 402.948 355.503 396.151C356.47 394.862 357.246 394.218 357.832 394.218C358.359 394.218 359.077 394.569 359.985 395.272C361.216 395.419 361.992 395.609 362.314 395.844C362.812 396.195 363.062 396.898 363.062 397.953ZM434.253 380.771C433.579 386.396 431.821 393.207 428.979 401.205C425.347 411.342 421.201 419.149 416.543 424.628C418.125 424.979 419.634 425.155 421.069 425.155C424.761 425.155 427.837 423.983 430.298 421.64C430.591 421.347 430.884 421.2 431.177 421.2C431.704 421.2 431.968 421.522 431.968 422.167C431.968 422.372 431.924 422.592 431.836 422.826C431.074 424.584 429.961 426.503 428.496 428.583C427.119 430.517 425.552 431.483 423.794 431.483C423.149 431.483 422.227 431.41 421.025 431.264C420.586 431.264 417.407 430.604 411.489 429.286C408.999 431.19 406.333 432.187 403.491 432.274C401.968 432.304 400.518 432.187 399.141 431.923C397.559 431.63 396.87 431.234 397.075 430.736C392.271 429.564 388.945 428.202 387.1 426.649C384.551 424.511 383.35 421.215 383.496 416.762C383.789 408.266 386.323 399.169 391.099 389.472C394.937 381.679 398.643 376.142 402.217 372.86C403.711 371.483 405.088 370.795 406.348 370.795C407.607 370.795 408.882 371.146 410.171 371.85C410.698 372.143 412.368 373.227 415.181 375.102C417.466 372.611 419.414 370.81 421.025 369.696C421.992 369.052 422.988 368.729 424.014 368.729C425.742 368.729 427.295 369.594 428.672 371.322C431.104 371.469 432.671 371.791 433.374 372.289C434.224 372.846 434.648 374.018 434.648 375.805C434.648 376.83 434.517 378.485 434.253 380.771ZM428.408 377.079C428.555 374.882 428.042 373.783 426.87 373.783C425.933 373.783 424.526 374.442 422.651 375.761C418.433 378.661 413.335 382.938 407.358 388.593C406.685 389.237 406.084 389.574 405.557 389.604C405.059 389.662 404.81 389.442 404.81 388.944C404.81 388.476 405.029 387.919 405.469 387.274C408.018 383.29 410.625 379.833 413.291 376.903C411.768 375.761 410.405 375.189 409.204 375.189C408.472 375.189 407.827 375.409 407.271 375.849C404.019 378.222 400.342 383.48 396.24 391.625C391.348 401.264 389.077 409.716 389.429 416.981C389.575 419.94 390.146 422.182 391.143 423.705C392.021 425.023 393.589 426.254 395.845 427.396C397.573 428.275 399.331 428.642 401.118 428.495C402.407 428.378 403.726 427.953 405.073 427.221C403.931 426.811 401.836 425.917 398.789 424.54C397.969 424.159 397.559 423.046 397.559 421.2C397.559 419.999 397.705 418.856 397.998 417.772C398.057 417.245 398.32 416.923 398.789 416.806C399.17 416.718 399.507 416.806 399.8 417.069C402.29 419.442 405.762 421.449 410.215 423.09C414.756 418.285 418.77 411.43 422.256 402.523C425.771 393.617 427.822 385.136 428.408 377.079ZM467.871 399.14C463.975 406.376 461.06 414.872 459.126 424.628C459.946 423.192 460.942 421.361 462.114 419.135C462.261 418.725 462.495 418.52 462.817 418.52C463.257 418.52 463.477 418.798 463.477 419.354C463.477 419.53 463.433 419.721 463.345 419.926C461.47 424.203 460.239 427.499 459.653 429.813C459.302 431.278 458.833 432.011 458.247 432.011C457.661 432.011 456.519 431.439 454.819 430.297C453.911 429.652 453.604 428.51 453.896 426.869C455.127 420.482 456.606 414.931 458.335 410.214C452.681 419.413 447.935 426.195 444.097 430.561C443.247 431.527 442.324 432.011 441.328 432.011C440.508 432.011 439.541 431.674 438.428 431C436.406 430.648 435.396 429.594 435.396 427.836C435.396 427.514 435.425 427.162 435.483 426.781C436.216 418.402 437.739 411.444 440.054 405.907C439.556 406.376 438.809 407.064 437.812 407.973C437.432 408.295 437.139 408.383 436.934 408.236C436.699 408.061 436.743 407.724 437.065 407.226C438.647 404.911 439.585 403.388 439.878 402.655C440.786 400.37 441.738 398.598 442.734 397.338C443.262 396.693 443.818 396.371 444.404 396.371C445.195 396.371 446.353 396.84 447.876 397.777C448.286 398.041 448.491 398.305 448.491 398.568C448.491 398.568 448.169 399.052 447.524 400.019C446.06 402.245 444.507 406.171 442.866 411.796C441.079 417.89 440.171 422.855 440.142 426.693C440.142 427.953 440.405 428.583 440.933 428.583C441.401 428.583 442.163 428.041 443.218 426.957C445.474 424.555 448.74 420.014 453.018 413.334C456.797 407.445 459.082 403.607 459.873 401.82C461.191 398.832 462.261 397.074 463.081 396.547C463.608 396.195 464.077 396.02 464.487 396.02C464.897 396.02 465.688 396.327 466.86 396.942C468.032 397.558 468.618 398.012 468.618 398.305C468.618 398.393 468.516 398.51 468.311 398.656C468.105 398.803 467.959 398.964 467.871 399.14ZM493.008 418.476C485.889 427.587 480.879 432.143 477.979 432.143C476.602 432.143 474.858 431.19 472.749 429.286C470.552 428.261 469.453 426.884 469.453 425.155C469.453 424.833 469.482 424.496 469.541 424.145C470.068 420.131 471.138 415.692 472.749 410.829C471.665 410.272 471.123 409.745 471.123 409.247C471.123 408.837 471.431 408.632 472.046 408.632C472.515 408.632 472.998 408.764 473.496 409.027C476.104 403.168 478.447 399.008 480.527 396.547C481.875 394.906 483.091 394.086 484.175 394.086C484.673 394.086 485.903 394.511 487.866 395.36C487.72 394.481 487.969 393.969 488.613 393.822C488.643 393.822 489.331 393.822 490.679 393.822C491.938 393.822 492.568 394.042 492.568 394.481C492.568 394.569 492.524 394.818 492.437 395.229C492.349 395.639 492.305 396.02 492.305 396.371C492.305 397.426 492.319 398.729 492.349 400.282C492.378 401.835 492.393 402.875 492.393 403.402C492.393 407.035 491.396 409.569 489.404 411.005C487.588 412.323 485.537 412.982 483.252 412.982C482.051 412.982 480.059 412.66 477.275 412.016C476.777 412.924 476.221 414.696 475.605 417.333C474.785 420.673 474.404 423.632 474.463 426.21C474.492 427.733 474.976 428.495 475.913 428.495C476.265 428.495 476.719 428.407 477.275 428.231C480.674 427.03 485.405 423.368 491.47 417.245C491.851 416.864 492.231 416.674 492.612 416.674C493.169 416.674 493.447 416.938 493.447 417.465C493.447 417.787 493.301 418.124 493.008 418.476ZM487.866 399.052C487.866 397.909 487.617 397.338 487.119 397.338C486.797 397.338 486.328 397.572 485.713 398.041C482.842 400.355 480.322 404.413 478.154 410.214C478.74 410.302 479.766 410.39 481.23 410.478C483.604 410.565 485.376 410.023 486.548 408.852C487.427 407.973 487.91 406.522 487.998 404.501C487.91 405.995 487.866 404.179 487.866 399.052ZM498.589 377.914C498.823 378.031 498.94 378.178 498.94 378.354C498.94 379.145 498.34 379.54 497.139 379.54C496.348 379.54 495.264 380.067 493.887 381.122C491.719 382.851 489.624 384.989 487.603 387.538C487.222 388.036 486.812 388.285 486.372 388.285C485.786 388.285 485.493 387.963 485.493 387.318C485.493 387.113 485.537 386.908 485.625 386.703C486.885 383.979 489.038 381.02 492.085 377.826C493.022 376.859 493.887 376.376 494.678 376.376C495.059 376.376 495.513 376.493 496.04 376.728L498.589 377.914ZM531.636 362.797C531.987 363.061 532.163 363.354 532.163 363.676C532.163 364.262 531.812 364.555 531.108 364.555C530.845 364.555 530.566 364.467 530.273 364.291C528.926 363.588 527.915 363.236 527.241 363.236C525.425 363.236 523.403 365.038 521.177 368.642C513.267 381.444 507.539 398.246 503.994 419.047C507.041 413.891 509.312 410.243 510.806 408.104C513.853 403.71 517.017 400.033 520.298 397.074C521.88 395.639 523.301 394.921 524.561 394.921C525.205 394.921 526.216 395.331 527.593 396.151C530.2 397.382 531.387 399.242 531.152 401.732C530.654 407.416 529.233 412.997 526.89 418.476C524.604 423.837 521.895 428.041 518.76 431.088C517.881 431.938 516.973 432.362 516.035 432.362C514.131 432.362 511.494 430.194 508.125 425.858C507.744 425.36 507.554 424.936 507.554 424.584C507.554 424.145 507.803 423.925 508.301 423.925C508.799 423.925 509.282 424.13 509.751 424.54C511.479 426.005 512.959 426.737 514.189 426.737C515.391 426.737 516.548 426.034 517.661 424.628C519.683 422.05 521.514 418.549 523.154 414.125C525.029 409.145 525.967 404.691 525.967 400.766C525.967 399.242 525.454 398.48 524.429 398.48C523.843 398.48 523.184 398.788 522.451 399.403C518.848 402.509 515.186 406.933 511.465 412.675C507.539 418.798 504.683 424.701 502.896 430.385C502.573 431.469 502.163 432.011 501.665 432.011C501.431 432.011 501.123 431.879 500.742 431.615C499.248 430.619 498.398 430.033 498.193 429.857C497.607 429.271 497.314 428.51 497.314 427.572C497.314 427.104 497.388 426.532 497.534 425.858C500.962 407.196 505.356 391.303 510.718 378.178C514.761 368.305 518.394 361.889 521.616 358.93C522.466 358.139 523.286 357.743 524.077 357.743C524.897 357.743 525.938 358.227 527.197 359.193C528.662 360.395 530.142 361.596 531.636 362.797ZM557.08 418.476C549.961 427.587 544.951 432.143 542.051 432.143C540.674 432.143 538.931 431.19 536.821 429.286C534.624 428.261 533.525 426.884 533.525 425.155C533.525 424.833 533.555 424.496 533.613 424.145C534.141 420.131 535.21 415.692 536.821 410.829C535.737 410.272 535.195 409.745 535.195 409.247C535.195 408.837 535.503 408.632 536.118 408.632C536.587 408.632 537.07 408.764 537.568 409.027C540.176 403.168 542.52 399.008 544.6 396.547C545.947 394.906 547.163 394.086 548.247 394.086C548.745 394.086 549.976 394.511 551.938 395.36C551.792 394.481 552.041 393.969 552.686 393.822C552.715 393.822 553.403 393.822 554.751 393.822C556.011 393.822 556.641 394.042 556.641 394.481C556.641 394.569 556.597 394.818 556.509 395.229C556.421 395.639 556.377 396.02 556.377 396.371C556.377 397.426 556.392 398.729 556.421 400.282C556.45 401.835 556.465 402.875 556.465 403.402C556.465 407.035 555.469 409.569 553.477 411.005C551.66 412.323 549.609 412.982 547.324 412.982C546.123 412.982 544.131 412.66 541.348 412.016C540.85 412.924 540.293 414.696 539.678 417.333C538.857 420.673 538.477 423.632 538.535 426.21C538.564 427.733 539.048 428.495 539.985 428.495C540.337 428.495 540.791 428.407 541.348 428.231C544.746 427.03 549.478 423.368 555.542 417.245C555.923 416.864 556.304 416.674 556.685 416.674C557.241 416.674 557.52 416.938 557.52 417.465C557.52 417.787 557.373 418.124 557.08 418.476ZM551.938 399.052C551.938 397.909 551.689 397.338 551.191 397.338C550.869 397.338 550.4 397.572 549.785 398.041C546.914 400.355 544.395 404.413 542.227 410.214C542.812 410.302 543.838 410.39 545.303 410.478C547.676 410.565 549.448 410.023 550.62 408.852C551.499 407.973 551.982 406.522 552.07 404.501C551.982 405.995 551.938 404.179 551.938 399.052ZM584.458 398.612C584.458 403.153 583.828 406.815 582.568 409.599C582.041 410.741 581.221 411.005 580.107 410.39C578.467 409.481 577.646 408.734 577.646 408.148C577.646 407.885 577.837 407.606 578.218 407.313C579.214 404.501 579.668 402.318 579.58 400.766C579.521 399.447 578.862 398.788 577.603 398.788C577.456 398.788 577.236 398.759 576.943 398.7C576.65 398.612 576.416 398.568 576.24 398.568C575.215 398.568 573.955 399.535 572.461 401.469C570.82 403.637 569.253 406.654 567.759 410.521C566.528 413.715 565.708 416.454 565.298 418.739C564.976 420.38 564.814 421.874 564.814 423.222C564.814 427.704 566.235 429.901 569.077 429.813C571.567 429.755 575.215 426.635 580.02 420.453C580.488 419.896 580.913 419.618 581.294 419.618C581.675 419.618 581.865 419.853 581.865 420.321C581.865 420.556 581.792 420.849 581.646 421.2C580.093 425.009 578.057 428.363 575.537 431.264C574.922 431.996 573.838 432.362 572.285 432.362C571.348 432.362 570.205 432.172 568.857 431.791C566.162 431.615 564.009 430.751 562.397 429.198C560.669 427.528 559.863 425.346 559.98 422.65C560.098 419.545 561.182 415.238 563.232 409.73C565.43 403.754 567.729 399.418 570.132 396.723C571.245 395.492 572.183 394.877 572.944 394.877C573.706 394.877 575.2 395.521 577.427 396.811C578.628 396.371 579.814 396.151 580.986 396.151C583.301 396.151 584.458 396.972 584.458 398.612Z" fill="#F9EC93"/>
<defs>
<clipPath id="clip0_227_2748">
<rect width="600" height="444" fill="white"/>
</clipPath>
</defs>
</svg>
