<svg width="320" height="287" viewBox="0 0 320 287" fill="none" xmlns="http://www.w3.org/2000/svg">
<g clip-path="url(#clip0_227_3296)">
<path d="M394.16 211.265L396.133 209.685H401.659V216.005H406.94V205.226L406.395 204.681V203.212H412.316V200.661H419.026V199.349H425.341V200.297H432.445V200.913H435.997V202.991L436.787 203.781H438.76L437.181 205.163V208.125L443.891 208.023V212.865L450.206 210.495H451.785L452.969 208.872V202.181H454.153L455.337 203.342H458.889V202.62H462.441V203.291H467.572V202.312H469.546V203.366L477.44 203.24V202.181L480.992 202.106V203.366L492.833 203.291V202.272H495.903V204.144H497.174L498.358 201.774L522.391 200.42V197.43H524.408V200.984L525.249 202.169H529.144V278.988H-9.80591V90.78H2.48081L6.57376 94.7532L9.73128 109.762L11.31 110.157L12.4941 112.526H16.0463L18.0198 114.896H22.3614L26.703 121.215V105.022L48.8057 63.5518V62.7618L48.411 62.3669L48.8057 61.9719V59.6022L48.411 59.2072L48.8057 58.8123L49.2004 52.098L49.595 58.8123L49.9897 59.2072L49.595 59.6022V61.9719L49.9897 62.3669L49.595 62.7618V63.5518L51.5685 65.9215V63.5518L51.1738 63.1568L51.5685 62.7618L51.9632 56.0476L52.3579 62.7618L52.7526 63.1568L52.3579 63.5518V67.8963L60.2517 97.123V66.3164L65.3827 65.1316L67.3561 67.5013L66.9614 100.678L68.5402 104.627V93.9633L67.7508 93.5684L70.119 89.6188L70.5136 81.7197L70.9083 89.6188L72.4871 90.4087L74.0659 95.1482H73.2765V106.602H78.8022V102.652H78.0128L78.8022 101.862V100.496H81.1703L81.711 101.179V102.06L82.3425 102.652H81.5531V106.602H115.497V103.837H114.707L115.497 103.047V100.678H117.47L117.865 101.073V103.047L118.654 103.837H117.865V106.602H130.889V105.563H130.495V104.627H130.889V102.396H131.679V104.738H132.074V105.46H131.679V108.577L136.02 116.081H146.397V108.525H145.9V107.787H145.505V107.392H145.11V106.207H144.321V105.417H143.926V74.2155H142.971C142.971 74.2155 145.505 74.6105 148.268 56.0476V53.982H147.873V53.2829H148.331L148.678 45.7787L149.073 53.2829H149.468V54.0491H149.073V56.0476C149.073 56.0476 149.862 61.9719 150.257 62.3669H153.414L154.204 57.6274L154.599 60.7871L155.783 58.8123L156.967 51.7031L157.361 55.2577L160.124 48.9384L160.519 44.5939L160.914 47.7535L162.098 46.1737V42.2241H163.708L165.255 39.4595V35.3914L165.65 38.2746L166.439 35.5099V34.3685H165.697V33.1402H166.439L167.229 20.1066L167.623 33.1402H168.413V34.4159H167.623V35.4981L168.807 39.4476L173.149 48.5316L173.544 45.3719L173.938 50.1114L176.701 55.6408L177.096 52.8761L177.885 58.0105L179.069 59.9853H179.859L180.253 57.2206L180.648 59.9853H183.016V58.9031H184.595V67.0432L185.779 58.4292V56.3794H185.384V55.6645H185.779L186.174 47.7654L186.568 55.6645H186.963V56.3794H186.568V58.4292C186.568 58.4292 188.542 72.2526 190.91 75.0173H190.121V105.824H189.726V106.614H188.937V107.404H188.542V108.589H188.147V134.656H206.35L206.686 130.706L207.081 135.446L208.659 137.025L209.054 133.471L209.449 138.21L212.606 141.37L219.711 126.757L220.105 119.647L220.5 126.757L225.631 137.42H227.21L227.604 130.706L228.394 135.446H229.578L229.973 133.471L230.367 135.446H231.946C231.946 135.446 232.735 138.605 233.525 139V133.866H232.735L235.644 127.349L235.893 123.597L236.288 126.362L239.84 117.673L240.235 111.748L240.629 117.673L244.576 126.362L244.971 124.782L245.366 127.941L247.734 132.286H247.339V136.63L251.286 135.446L251.681 132.286L252.075 135.446L256.022 139L256.812 137.815V135.88H257.206L263.521 123.19V115.686H261.943V114.896H263.521V112.921H263.916V114.896H265.495V115.737L263.916 115.686V123.19L271.415 137.408L272.205 136.619L272.599 133.854L272.994 136.619L274.178 138.198V142.634L274.967 141.362L275.362 137.807L275.757 141.362L277.336 143.732V148.866L278.52 150.446L277.73 151.631V152.816H279.763L280.493 155.975C280.493 155.975 284.045 157.16 284.045 161.505H285.746V163.136H286.808L286.042 163.902L286.019 165.849H286.808L287.795 166.837L287.005 167.627V174.933H289.235V177.844C289.235 177.844 292.334 176.118 293.913 176.118C295.491 176.118 298.254 172.563 298.254 172.563L298.649 156.37L299.438 172.563C299.438 172.563 301.017 176.118 304.174 176.513C307.332 176.908 309.7 179.278 309.7 181.252H307.727V193.496H388.638V215.614H394.164L394.16 211.265Z" fill="#F9EC93"/>
<path d="M395.21 211.158L397.183 209.579H402.709V215.898H407.99V205.12L407.445 204.575V203.105H413.366V200.554H420.075V199.243H426.39V200.167H433.495V200.787H437.047V202.864L437.836 203.654H439.81L438.231 205.037V207.999L444.941 207.896V212.738L451.256 210.369H452.835L454.019 208.745V202.075H455.203L456.387 203.232H459.939V202.513H463.491V203.18H468.622V202.205H470.596V203.259L478.49 203.129V202.075L482.042 201.996V203.259L493.883 203.18V202.177H496.953V204.049H498.224L499.408 201.68L523.441 200.325V197.335H525.458V200.89L526.298 202.075H530.194V278.893H-8.7561V90.6694H3.53062L7.62356 94.6466L10.7811 109.655L12.3598 110.05L13.5439 112.42H17.0961L19.0696 114.789H23.4112L27.7528 121.109V104.915L49.8555 63.4451V62.6552L49.4608 62.2602L49.8555 61.8653V59.4956L49.4608 59.1006L49.8555 58.7056L50.2502 51.9914L50.6449 58.7056L51.0395 59.1006L50.6449 59.4956V61.8653L51.0395 62.2602L50.6449 62.6552V63.4451L52.6183 65.8148V63.4451L52.2236 63.0502L52.6183 62.6552L53.013 55.941L53.4077 62.6552L53.8024 63.0502L53.4077 63.4451V67.7896L61.3015 97.0163V66.2098L66.4325 65.0249L68.4059 67.3947L68.0112 100.571L69.59 104.52V93.8567L68.8006 93.4617L71.1688 89.5122L71.5635 81.6131L71.9582 89.5122L73.5369 90.3021L75.1157 95.0416H74.3263V106.495H79.852V102.546H79.0626L79.852 101.756V100.373H82.2201L82.7608 101.057V101.953L83.3923 102.546H82.603V106.495H116.546V103.731H115.757L116.546 102.941V100.571H118.52L118.915 100.966V102.941L119.704 103.731H118.915V106.495H131.939V105.457H131.545V104.52H131.939V102.289H132.729V104.631H133.123V105.354H132.729V108.47L137.07 115.974H147.435V108.419H146.949V107.68H146.555V107.285H146.16V106.1H145.371V105.31H144.976V74.1089H144.025C144.025 74.1089 146.555 74.5039 149.318 55.941V53.8753H148.923V53.1763H149.365L149.712 45.6721L150.107 53.1763H150.502V53.9385H150.107V55.941C150.107 55.941 150.896 61.8653 151.291 62.2602H154.449L155.238 57.5208L155.633 60.6804L156.817 58.7056L158.001 51.5964L158.395 55.151L161.158 48.8318L161.553 44.4872L161.948 47.6469L163.132 46.0671V42.1175H164.746L166.289 39.3528V35.2848L166.684 38.168L167.473 35.4033V34.2618H166.731V33.0335H167.473L168.263 20L168.657 33.0335H169.447V34.3211H168.657V35.4033L169.841 39.3528L174.183 48.4368L174.578 45.2772L174.972 50.0166L177.735 55.546L178.13 52.7813L178.919 57.9157L180.103 59.8905H180.893L181.287 57.1258L181.682 59.8905H184.05V58.7846H185.629V66.9207L186.813 58.3107V56.2569H186.418V55.546H186.813L187.208 47.6469L187.603 55.546H187.997V56.2569H187.603V58.3107C187.603 58.3107 189.576 72.1341 191.944 74.8988H191.155V105.705H190.76V106.495H189.971V107.285H189.576V108.47H189.181V134.537H207.396L207.732 130.588L208.126 135.327L209.705 136.907L210.1 133.352L210.495 138.092L213.652 141.251L220.757 126.638L221.151 119.529L221.546 126.638L226.677 137.302H228.256L228.65 130.588L229.44 135.327H230.624L231.019 133.352L231.413 135.327H232.992C232.992 135.327 233.781 138.487 234.571 138.882V133.747H233.781L236.69 127.23L236.939 123.478L237.334 126.243L240.886 117.554L241.28 111.63L241.675 117.554L245.622 126.243L246.017 124.663L246.411 127.823L248.78 132.167H248.385V136.512L252.332 135.327L252.727 132.167L253.121 135.327L257.068 138.882L257.857 137.697V135.773H258.252L264.567 123.083V115.579H262.988V114.789H264.567V112.815H264.962V114.789H266.541V115.631L264.962 115.579V123.083L272.461 137.302L273.25 136.512L273.645 133.747L274.04 136.512L275.224 138.092V142.523L276.013 141.251L276.408 137.697L276.803 141.251L278.381 143.621V148.756L279.565 150.335L278.776 151.52V152.705H280.809L281.539 155.865C281.539 155.865 285.091 157.05 285.091 161.394H286.796V163.025H287.854L287.092 163.791L287.065 165.739H287.854L288.841 166.726L288.051 167.516V174.823H290.281V177.733C290.281 177.733 293.38 176.007 294.958 176.007C296.537 176.007 299.3 172.453 299.3 172.453L299.695 156.26L300.484 172.453C300.484 172.453 302.063 176.007 305.22 176.402C308.378 176.797 310.746 179.167 310.746 181.142H308.773V193.385H389.684V215.503H395.21V211.158Z" fill="#263546"/>
<path d="M168.657 52.3864V54.3256L167.079 58.7056V57.1258H166.289V60.2855L165.5 62.6552V61.8653H164.71V77.0197H165.441L165.5 64.235L169.052 54.7561V52.3864H168.657Z" fill="#F9EC93"/>
<path d="M163.921 93.0668L163.132 98.5961L158.001 112.815H157.211V113.999H158.001V116.764H158.956V113.999H158.395V112.815H159.185L164.316 98.5961L163.921 93.0668Z" fill="#F9EC93"/>
<path d="M144.187 131.772H142.817L143.792 130.982L148.134 118.344L148.528 114.394L148.923 118.344L144.187 131.772Z" fill="#F9EC93"/>
<path d="M126.228 110.247L125.833 114.197C125.833 114.197 124.255 117.751 124.255 117.357C124.255 116.962 123.465 113.802 123.465 113.802L122.964 117.357V119L123.86 119.726V120.911L121.492 121.701L119.913 124.466L120.308 124.861V131.97H121.097V124.466L120.702 124.071L121.887 122.096L124.255 121.306V119.331L123.465 118.541V117.751H124.649L126.623 114.197L126.228 110.247Z" fill="#F9EC93"/>
<path d="M107.749 110.342L107.354 114.292C107.354 114.292 105.775 117.846 105.775 117.451C105.775 117.056 104.986 113.897 104.986 113.897L104.485 117.451V119.094L105.396 119.79V120.974L103.028 121.764L101.449 124.529L101.844 124.924V132.033H102.634V124.529L102.239 124.134L103.423 122.159L105.791 121.369V119.395L105.002 118.605V117.815H106.186L108.159 114.26L107.749 110.342Z" fill="#F9EC93"/>
<path d="M89.1982 110.342L88.8035 114.292C88.8035 114.292 87.2247 117.846 87.2247 117.451C87.2247 117.056 86.4353 113.897 86.4353 113.897L85.9341 117.451V119.094L86.8458 119.79V120.974L84.4777 121.764L82.8989 124.529L83.2936 124.924V132.033H84.083V124.529L83.6883 124.134L84.8724 122.159L87.2405 121.369V119.395L86.4511 118.605V117.815H87.6352L89.6087 114.26L89.1982 110.342Z" fill="#F9EC93"/>
<path d="M153.462 128.415L155.041 123.676L155.435 120.911V123.676L153.857 128.415V133.155H153.462V128.415Z" fill="#F9EC93"/>
<path d="M164.513 128.81L166.092 124.071L166.487 121.306V124.071L164.908 128.81V131.772L164.513 130.836V128.81Z" fill="#F9EC93"/>
<path d="M162.934 126.441L162.39 128.846L159.777 132.365L159.382 131.18L158.988 133.55V141.307L159.382 141.449V155.272H160.033V141.054L159.623 140.908V133.155L162.934 128.81V126.441Z" fill="#F9EC93"/>
<path d="M169.249 131.18L167.276 135.13H167.817L169.644 131.97L169.249 131.18Z" fill="#F9EC93"/>
<path d="M155.743 131.18L153.77 135.13H154.307L156.138 131.97L155.743 131.18Z" fill="#F9EC93"/>
<path d="M194.115 142.634C194.115 142.634 195.299 139.474 195.299 139.079C195.299 138.684 195.694 133.55 195.694 133.55V139.079L194.51 142.239H195.299V142.634H194.51L195.299 145.398H194.904" fill="#F9EC93"/>
<path d="M178.327 142.239C178.327 142.239 179.511 139.079 179.511 138.684C179.511 138.289 179.906 133.155 179.906 133.155V138.684L178.722 141.844H179.511V142.239H178.722L179.511 145.003H179.117" fill="#F9EC93"/>
<path d="M184.248 148.558H183.458V148.163H183.853C183.853 148.163 187.405 142.634 187.405 142.239C187.405 141.844 188.195 138.289 188.195 138.289V142.239L184.248 148.558Z" fill="#F9EC93"/>
<path d="M200.825 148.558H200.035V148.163H200.43C200.43 148.163 203.982 142.634 203.982 142.239C203.982 141.844 204.772 138.289 204.772 138.289V142.239L200.825 148.558Z" fill="#F9EC93"/>
<path d="M143.594 121.701C143.594 121.701 144.779 118.541 144.779 118.146C144.779 117.751 145.173 112.617 145.173 112.617V118.146L143.989 121.306H144.779V121.701H143.989L144.779 124.466H144.384" fill="#F9EC93"/>
<path d="M151.883 121.701C151.883 121.701 153.067 118.541 153.067 118.146C153.067 117.751 153.462 112.617 153.462 112.617V118.146L152.278 121.306H153.067V121.701H152.278L153.067 124.466H152.672" fill="#F9EC93"/>
<path d="M177.143 67.9871C177.143 67.9871 178.327 64.8275 178.327 64.4325C178.327 64.0376 178.722 58.9031 178.722 58.9031V64.4325L177.538 67.5922H178.327V67.9871H177.538L178.327 70.7518H177.933" fill="#F9EC93"/>
<path d="M222.138 135.13V135.955L219.908 139.474H220.421C220.559 145.398 220.559 146.188 220.559 146.188H219.908V148.06H220.954V139.079L222.927 135.919V135.13H222.138Z" fill="#F9EC93"/>
<path d="M172.802 62.0627C172.802 62.0627 173.986 58.9031 173.986 58.5081C173.986 58.1132 174.381 52.9788 174.381 52.9788V58.5081L173.196 61.6678H173.986V62.0627H173.196L173.986 64.8274H173.591" fill="#F9EC93"/>
<path d="M160.961 61.6678C160.961 61.6678 162.145 58.5082 162.145 58.1132C162.145 57.7183 162.54 52.5839 162.54 52.5839V58.1132L161.356 61.2729H162.145V61.6678H161.356L162.145 64.4325H161.75" fill="#F9EC93"/>
<path d="M157.409 66.4073C157.409 66.4073 158.593 63.2476 158.593 62.8527C158.593 62.4577 158.987 57.3233 158.987 57.3233V62.8527L157.803 66.0123H158.593V66.4073H157.803L158.593 69.172H158.198" fill="#F9EC93"/>
<path d="M208.719 142.239C208.719 142.239 209.903 139.079 209.903 138.684C209.903 138.562 209.942 137.977 209.993 137.231C210.297 137.894 210.297 137.894 210.297 137.894V138.684L209.113 141.844H209.903V142.239H209.113L209.903 145.003H209.508" fill="#F9EC93"/>
<path d="M76.8919 116.962H76.1025L77.6813 114.592H78.076L76.8919 116.962Z" fill="#F9EC93"/>
<path d="M99.0142 116.962H98.2249L99.8036 114.592H100.198L99.0142 116.962Z" fill="#F9EC93"/>
<path d="M116.68 117.357H115.891L117.47 114.987H117.865L116.68 117.357Z" fill="#F9EC93"/>
<path d="M79.26 123.676H78.0759V122.491L80.8388 120.121L81.5413 121.207L79.26 123.676Z" fill="#F9EC93"/>
<path d="M97.8105 124.071H96.6265V122.886L99.3893 120.516L100.092 121.602L97.8105 124.071Z" fill="#F9EC93"/>
<path d="M115.966 124.466H114.782V123.281L117.545 120.911L118.248 121.997L115.966 124.466Z" fill="#F9EC93"/>
<path d="M133.727 124.466H132.543V123.281L135.306 120.911L136.009 121.997L133.727 124.466Z" fill="#F9EC93"/>
<path d="M139.253 127.625C139.253 127.625 140.437 124.466 140.437 124.071C140.437 123.676 140.832 118.541 140.832 118.541V124.071L139.648 127.23H140.437V127.625H139.648L140.437 130.39H140.042" fill="#F9EC93"/>
<path d="M185.826 67.1972L183.458 75.4913H184.204L184.248 77.466H183.458V81.1273H184.129L184.248 105.113H184.642V106.203H185.092V107.483H185.826V108.134H186.407V109.296H187.01V107.285H186.221V105.508H185.234V104.347H185.037V74.3064L185.826 67.1972Z" fill="#F9EC93"/>
<path d="M240.294 141.844L239.11 152.113H239.702V154.19C239.702 154.19 240.31 154.688 240.491 154.19C240.673 153.692 240.491 151.256 240.491 151.256H239.84L240.294 141.844Z" fill="#F9EC93"/>
<path d="M235.163 140.659L233.584 146.583C233.584 146.583 234.373 146.188 234.373 146.583V152.594L235.952 152.508V151.666L235.163 151.718V145.793H234.373L235.163 140.659Z" fill="#F9EC93"/>
<path d="M236.741 143.424V132.365H235.557L240.886 117.554H241.221L237.136 131.575H237.531V143.424L243.057 139.079L245.03 142.634L243.057 139.474L237.531 144.214L236.741 143.424Z" fill="#F9EC93"/>
<path d="M242.267 124.861C242.267 125.256 240.688 130.39 240.688 130.39H241.478V133.945H242.007C241.873 133.945 242.007 129.995 242.007 129.995H241.478L242.267 124.861Z" fill="#F9EC93"/>
<path d="M267.133 132.76C267.133 133.155 265.554 138.289 265.554 138.289H266.343V141.844H266.872C266.738 141.844 266.872 137.894 266.872 137.894H266.343L267.133 132.76Z" fill="#F9EC93"/>
<path d="M272.658 137.894C272.658 138.289 271.08 143.424 271.08 143.424H271.869V146.978H272.398C272.264 146.978 272.398 143.029 272.398 143.029H271.869L272.658 137.894Z" fill="#F9EC93"/>
<path d="M249.372 154.087L252.924 141.054L250.161 153.298H250.95L251.148 159.443H250.556V154.087H249.372Z" fill="#F9EC93"/>
<path d="M257.723 141.054L260.423 136.709L258.844 140.264V143.424H258.146V141.054H257.723Z" fill="#F9EC93"/>
<path d="M117.109 151.979H90.9531V200.586H117.109V151.979Z" fill="#F9EC93"/>
<path d="M147.003 151.979H120.847V200.586H147.003V151.979Z" fill="#F9EC93"/>
<path d="M109.563 159.878C109.563 159.878 108.379 160.719 108.841 161.324C108.841 161.442 109.081 161.805 108.841 161.805C108.6 161.805 108.481 162.046 108.6 162.287C108.481 162.406 107.637 162.287 107.518 163.492C106.433 163.974 104.507 171.201 104.266 176.131C104.025 181.06 100.899 191.668 100.899 191.668C100.899 191.668 103.966 194.377 104.811 192.813C105.031 192.67 105.292 192.604 105.553 192.626C105.815 192.647 106.062 192.755 106.255 192.932C106.255 192.932 106.133 195.945 106.737 196.546C106.255 196.909 106.133 197.028 106.374 197.873C106.015 198.232 106.133 198.355 105.892 198.355C105.652 198.355 105.411 198.114 105.052 198.955C105.052 198.955 103.125 199.919 102.403 200.882C101.559 201.123 100.596 201.483 100.114 202.81C99.0885 203.283 98.1832 203.983 97.4656 204.856C96.6249 205.097 96.6249 204.856 96.3842 205.701C95.9026 205.701 95.7803 206.301 94.6988 206.183C93.9068 206.567 93.1765 207.068 92.532 207.668C92.868 208.581 93.408 209.405 94.1107 210.077C94.2821 209.971 94.4433 209.849 94.5923 209.714C94.5923 209.714 95.5553 214.058 99.1667 214.058C100.493 214.058 97.9827 212.735 97.9827 211.649C98.0666 210.664 98.2694 209.694 98.5865 208.758C98.5865 208.758 100.031 209.362 108.576 201.649C108.576 204.54 108.817 205.503 108.576 206.345C108.335 207.186 107.503 211.163 108.339 212.49C108.125 213.56 108.084 214.658 108.217 215.741H110.226L110.261 215.14C110.261 215.14 110.502 215.982 114.232 215.982C116.158 215.982 117.121 215.622 117.121 215.14C117.121 214.658 116.004 214.382 114.437 214.382C113.715 214.382 112.993 213.778 112.511 212.936C112.27 212.455 113.234 215.464 113.474 204.504C113.597 202.577 114.078 202.818 113.597 201.739C113.956 201.017 114.678 196.802 113.715 195.961C113.853 195.689 113.903 195.382 113.86 195.08C113.817 194.778 113.682 194.497 113.474 194.275C112.993 193.793 114.197 192.829 114.197 192.829C114.197 192.829 113.956 185.842 114.319 184.756C114.682 183.67 116.845 175.846 112.634 164.523C112.575 164.327 112.534 164.126 112.511 163.922H112.874C112.874 163.922 112.752 163.318 113.115 163.2L112.874 162.959V162.354C113.319 162.523 113.786 162.624 114.26 162.655C115.018 162.655 114.919 161.754 114.919 161.754C114.919 161.754 115.282 161.632 115.16 161.513C115.282 161.513 115.523 161.15 115.4 161.031C115.278 160.913 115.641 160.55 115.641 160.55C115.641 160.55 116.123 160.668 116.123 160.309C116.123 159.949 115.523 159.222 115.763 158.863C116.004 158.504 116.245 158.018 116.123 156.454C116.004 155.731 116.604 155.731 116.245 155.249C115.886 154.767 112.993 151.995 110.585 153.922C108.178 155.85 109.504 159.835 109.504 159.835" fill="#263546"/>
<path d="M111.789 164.29C112.271 164.29 115.523 168.144 115.041 173.322C115.4 173.563 115.282 173.927 115.282 174.286C115.641 174.649 116.486 174.768 116.727 175.732C116.946 175.744 117.154 175.837 117.309 175.993C117.464 176.149 117.556 176.357 117.567 176.577C117.93 176.936 120.216 178.382 120.938 178.504C121.66 178.627 122.383 178.504 122.517 178.623C122.651 178.741 122.635 179.345 122.635 179.345C122.635 179.345 123.357 178.623 124.561 179.586C124.924 179.827 125.043 179.95 124.684 180.672C124.324 181.395 124.561 181.877 123.105 181.514C122.505 181.395 122.505 180.672 122.986 180.913C122.623 180.791 122.505 180.913 122.505 180.913C122.505 180.913 122.623 182.236 122.142 182.355C121.66 182.473 120.338 182.236 120.097 181.996C120.027 181.914 119.979 181.816 119.958 181.711C119.937 181.606 119.942 181.497 119.975 181.395C119.975 181.395 117.449 181.123 117.39 180.475C116.727 180.309 112.752 178.986 112.511 177.315C112.338 176.071 111.789 164.29 111.789 164.29Z" fill="#263546"/>
<path d="M121.739 185.187L121.802 189.824L122.161 190.787L125.173 190.669L125.773 185.246H126.475V185.128L125.09 185.068C124.862 184.851 124.564 184.722 124.249 184.705V183.5C124.249 183.5 124.49 183.5 124.49 183.382C124.49 183.342 124.285 183.303 124.009 183.275C123.973 183.275 123.926 181.577 123.886 181.573C123.847 181.569 123.886 183.263 123.859 183.263C123.662 183.247 123.464 183.24 123.266 183.244C123.247 183.244 123.428 181.091 123.405 181.091C123.381 181.091 123.156 183.244 123.132 183.244C122.817 183.244 122.568 183.295 122.568 183.382C122.568 183.469 122.805 183.5 122.805 183.5V184.705C122.805 184.705 121.96 184.827 121.842 185.068H121.238V185.195L121.739 185.187Z" fill="#263546"/>
<path d="M122.446 185.791L123.768 188.2L125.335 185.791H122.446Z" fill="#F9EC93"/>
<path d="M122.323 185.91L122.564 190.246L123.649 188.441L122.323 185.91Z" fill="#F9EC93"/>
<path d="M122.686 190.365L123.768 188.56L124.853 190.365H122.686Z" fill="#F9EC93"/>
<path d="M125.335 186.079L123.89 188.366L124.972 190.124L125.335 186.079Z" fill="#FFED94"/>
<path d="M123.768 190.305C124.066 190.305 124.309 190.063 124.309 189.764C124.309 189.466 124.066 189.223 123.768 189.223C123.469 189.223 123.227 189.466 123.227 189.764C123.227 190.063 123.469 190.305 123.768 190.305Z" fill="#FFC45C"/>
<path d="M123.673 189.567C123.807 189.567 123.945 190.195 123.807 190.195C123.669 190.195 123.673 190.321 123.535 190.195C123.397 190.068 123.535 189.567 123.673 189.567Z" fill="#FFA300"/>
<path d="M123.665 189.567C123.736 189.567 123.807 189.93 123.736 189.93C123.665 189.93 123.665 190.001 123.594 189.93C123.523 189.859 123.594 189.567 123.665 189.567Z" fill="#FFF7C5"/>
<path d="M119.079 212.206C139.004 212.206 155.157 196.042 155.157 176.103C155.157 156.164 139.004 140 119.079 140C99.153 140 83 156.164 83 176.103C83 196.042 99.153 212.206 119.079 212.206Z" stroke="#58646D" stroke-width="6" stroke-miterlimit="10"/>
<path d="M148.159 199.698C156.274 202.656 158.978 201.55 159.85 199.152C164.227 200.732 209.187 218.016 209.187 218.016C215.825 220.437 219.819 212.423 212.427 209.109C205.8 206.139 163.552 191.301 163.552 191.301C163.975 189.571 165.163 185.29 155.591 182.754L148.159 199.698Z" fill="#58646D"/>
<path d="M111.015 145.048L109.062 150.399C109.062 150.399 130.067 145.897 142.346 154.929C127.111 142.555 121.076 144.534 111.015 145.048Z" fill="#58646D"/>
</g>
<path d="M51.7578 225.359C51.8717 225.457 51.9287 225.571 51.9287 225.701C51.9287 226.027 51.6683 226.189 51.1475 226.189C51.0498 226.189 50.8952 226.173 50.6836 226.141C50.4883 226.108 50.3337 226.092 50.2197 226.092C49.4548 226.092 48.6816 226.84 47.9004 228.338C44.7266 234.49 42.6595 242.148 41.6992 251.312C42.0736 250.612 42.57 249.676 43.1885 248.504C43.3675 248.146 43.5872 247.967 43.8477 247.967C44.1569 247.967 44.3115 248.17 44.3115 248.577C44.3115 248.772 44.2546 249 44.1406 249.261C43.4245 250.953 42.7653 253.387 42.1631 256.561C42.0166 257.26 41.6992 257.61 41.2109 257.61C40.6576 257.61 39.8193 257.187 38.6963 256.341C38.1592 255.934 37.8499 255.608 37.7686 255.364C37.6709 255.136 37.679 254.664 37.793 253.948C38.3789 250.416 39.1357 246.437 40.0635 242.01C41.1377 236.948 41.9189 233.961 42.4072 233.05C40.6982 235.068 38.5986 238.03 36.1084 241.937C33.667 245.778 31.5348 249.432 29.7119 252.898C30.0374 253.908 30.2002 254.664 30.2002 255.169C30.2002 255.804 29.6631 256.618 28.5889 257.61C28.0355 258.131 27.6693 258.392 27.4902 258.392C27.3112 258.392 26.8311 257.741 26.0498 256.438C25.708 255.885 25.5371 255.446 25.5371 255.12C25.5371 254.892 25.7731 254.339 26.2451 253.46C25.2035 249.586 23.3073 244.866 20.5566 239.3C18.7988 243.727 17.0166 247.763 15.21 251.409C16.3818 252.728 16.9678 253.615 16.9678 254.07C16.9678 254.428 16.5609 254.656 15.7471 254.754C14.0381 254.949 12.6058 255.828 11.4502 257.391C11.3525 257.895 11.1084 258.147 10.7178 258.147C10.1644 258.147 9.3099 257.651 8.1543 256.658C7.79622 256.349 7.61719 256.097 7.61719 255.901C7.61719 255.722 7.76367 255.503 8.05664 255.242C9.14714 254.298 10.3923 253.387 11.792 252.508C14.8193 247.479 17.2852 242.189 19.1895 236.639C17.2038 232.277 14.738 229.233 11.792 227.508C11.3037 227.215 10.8398 227.068 10.4004 227.068C9.7819 227.068 9.13086 227.386 8.44727 228.021C7.8125 228.704 7.17773 229.396 6.54297 230.096C6.1849 230.503 5.81868 230.706 5.44434 230.706C5.15137 230.706 5.00488 230.56 5.00488 230.267C5.00488 230.12 5.05371 229.949 5.15137 229.754C7.34863 225.343 9.44824 223.178 11.4502 223.26C13.8265 223.341 16.9108 226.287 20.7031 232.098C21.6309 229.982 22.0947 228.069 22.0947 226.36C22.0947 225.481 22.2249 225.042 22.4854 225.042C22.7295 225.042 23.2992 225.392 24.1943 226.092C24.4548 226.303 24.5768 226.743 24.5605 227.41C24.528 228.257 23.7712 230.722 22.29 234.808C25.1546 240.374 27.3275 245.452 28.8086 250.042C34.554 240.504 39.7217 233.058 44.3115 227.703C44.8812 226.401 45.5811 225.115 46.4111 223.846C46.7692 223.292 47.2005 223.016 47.7051 223.016C48.4701 223.016 49.821 223.797 51.7578 225.359ZM65.5273 240.105C63.265 250.538 61.141 258.343 59.1553 263.519C55.3141 273.577 50.9033 278.606 45.9229 278.606C43.0094 278.606 39.8763 277.02 36.5234 273.846C36.2305 273.569 36.084 273.276 36.084 272.967C36.084 272.479 36.3118 272.234 36.7676 272.234C36.9954 272.234 37.2152 272.324 37.4268 272.503C40.0798 274.765 42.4479 275.896 44.5312 275.896C48.3561 275.896 51.8311 272.706 54.9561 266.326C57.4137 261.329 59.554 254.624 61.377 246.209C61.4909 245.607 61.6781 244.687 61.9385 243.45C60.2295 246.233 58.3171 248.976 56.2012 251.678C54.1667 254.282 52.5635 256.072 51.3916 257.049C50.7406 257.586 50.2197 257.854 49.8291 257.854C49.5199 257.854 49.2025 257.684 48.877 257.342C48.5352 256.902 48.1852 256.471 47.8271 256.048C47.6644 255.853 47.583 255.674 47.583 255.511C47.583 255.494 47.583 255.478 47.583 255.462C47.6156 255.267 47.762 255.128 48.0225 255.047C48.8037 253.989 49.5361 251.702 50.2197 248.187C50.7406 245.42 51.0986 242.791 51.2939 240.301C51.3265 239.715 51.2533 239.422 51.0742 239.422C51.0254 239.422 50.6429 239.715 49.9268 240.301C48.7874 241.261 48.1689 241.741 48.0713 241.741C47.8434 241.741 47.7295 241.627 47.7295 241.399C47.7295 241.285 47.7783 241.172 47.876 241.058C48.1527 240.716 48.7712 239.861 49.7314 238.494C50.5941 237.273 51.1719 236.663 51.4648 236.663C51.6927 236.663 52.002 236.761 52.3926 236.956C53.2227 236.826 53.6865 236.761 53.7842 236.761C54.3376 236.761 54.6143 237.184 54.6143 238.03C54.6143 239.446 54.2074 242.221 53.3936 246.355C52.5798 250.473 51.9124 253.134 51.3916 254.339C53.0192 253.053 55.1351 250.53 57.7393 246.771C60.2783 243.108 61.8571 240.35 62.4756 238.494C62.5081 237.404 62.7441 236.858 63.1836 236.858C63.5254 236.858 64.1602 237.208 65.0879 237.908C65.6087 238.299 65.7552 239.031 65.5273 240.105ZM79.541 237.444C79.541 238.177 79.3457 239.349 78.9551 240.96C78.8086 241.513 78.6458 241.871 78.4668 242.034C78.3854 242.116 78.1087 242.238 77.6367 242.4C77.0345 242.628 76.6602 242.742 76.5137 242.742C76.2695 242.742 76.1475 242.579 76.1475 242.254C76.1475 242.075 76.18 241.839 76.2451 241.546C76.6357 239.935 76.7822 238.82 76.6846 238.201C76.6032 237.566 76.7904 237.168 77.2461 237.005C78.0436 236.598 78.5563 236.395 78.7842 236.395C79.2887 236.395 79.541 236.744 79.541 237.444ZM75.6348 251.458C75.6836 253.411 74.6012 254.746 72.3877 255.462C72.111 256.146 71.8506 256.618 71.6064 256.878C71.2321 257.269 70.6787 257.496 69.9463 257.562C69.4743 257.594 68.9697 257.57 68.4326 257.488C67.4723 257.342 66.2923 257.163 64.8926 256.951C64.502 256.886 64.266 256.65 64.1846 256.243C64.2497 255.804 64.7054 255.543 65.5518 255.462C66.7074 255.381 68.4163 255.177 70.6787 254.852C71.5251 254.656 72.1273 254.176 72.4854 253.411C72.6969 253.021 72.8027 252.54 72.8027 251.971C72.8027 250.945 72.29 249.139 71.2646 246.551C70.2555 244.028 69.7835 242.343 69.8486 241.497C69.9788 239.463 71.8587 238.047 75.4883 237.249C75.8464 237.168 76.0254 237.298 76.0254 237.64C76.0254 237.835 75.8952 237.99 75.6348 238.104C73.877 238.868 72.998 239.812 72.998 240.936C72.998 241.375 73.0794 241.928 73.2422 242.596C73.4049 243.247 73.8932 244.826 74.707 247.332C75.3092 249.139 75.6185 250.514 75.6348 251.458ZM93.9941 225.848C94.4499 226.092 94.6777 226.368 94.6777 226.678C94.6777 226.889 94.5231 226.995 94.2139 226.995C94.1488 226.995 94.043 226.987 93.8965 226.971C93.7663 226.938 93.6686 226.922 93.6035 226.922C92.985 226.922 92.2363 227.597 91.3574 228.948C90.5762 230.153 89.4938 232.773 88.1104 236.81C87.9801 237.168 87.9313 237.379 87.9639 237.444C88.0127 237.558 88.2243 237.623 88.5986 237.64C89.5589 237.721 90.8447 237.688 92.4561 237.542C93.0094 237.493 93.2861 237.729 93.2861 238.25C93.2861 238.608 93.0745 238.828 92.6514 238.909C92.3096 238.958 90.5111 239.104 87.2559 239.349C85.3027 245.062 84.1146 249.896 83.6914 253.851C83.6751 254.062 83.667 254.249 83.667 254.412C83.667 254.965 83.8053 255.242 84.082 255.242C84.5215 255.242 85.848 254.176 88.0615 252.044C88.3219 251.784 88.5742 251.653 88.8184 251.653C89.0299 251.653 89.1602 251.743 89.209 251.922C89.2578 252.117 89.1846 252.345 88.9893 252.605C87.6709 254.347 86.377 255.828 85.1074 257.049C84.5703 257.553 84.1227 257.806 83.7646 257.806C83.4066 257.806 82.8532 257.521 82.1045 256.951C81.1768 256.707 80.7129 256.219 80.7129 255.486C80.7129 255.372 80.7292 255.242 80.7617 255.096C81.3639 250.896 82.5439 245.729 84.3018 239.593C83.4391 239.479 82.6579 239.365 81.958 239.251C81.6488 239.202 81.4941 239.007 81.4941 238.665C81.4941 238.291 81.6569 238.063 81.9824 237.981C82.3079 237.9 82.9102 237.721 83.7891 237.444C84.3262 237.265 84.847 237.021 85.3516 236.712C87.0931 231.325 88.4603 227.833 89.4531 226.238C90.0228 225.327 90.6331 224.871 91.2842 224.871C91.9027 224.871 92.806 225.197 93.9941 225.848ZM104.614 250.042C100.659 255.104 97.876 257.635 96.2646 257.635C95.4997 257.635 94.5312 257.106 93.3594 256.048C92.1387 255.478 91.5283 254.713 91.5283 253.753C91.5283 253.574 91.5446 253.387 91.5771 253.191C91.8701 250.962 92.4642 248.496 93.3594 245.794C92.7572 245.485 92.4561 245.192 92.4561 244.915C92.4561 244.687 92.627 244.573 92.9688 244.573C93.2292 244.573 93.4977 244.646 93.7744 244.793C95.223 241.538 96.5251 239.227 97.6807 237.859C98.4294 236.948 99.1048 236.492 99.707 236.492C99.9837 236.492 100.667 236.728 101.758 237.2C101.676 236.712 101.815 236.427 102.173 236.346C102.189 236.346 102.572 236.346 103.32 236.346C104.02 236.346 104.37 236.468 104.37 236.712C104.37 236.761 104.346 236.899 104.297 237.127C104.248 237.355 104.224 237.566 104.224 237.762C104.224 238.348 104.232 239.072 104.248 239.935C104.264 240.797 104.272 241.375 104.272 241.668C104.272 243.686 103.719 245.094 102.612 245.892C101.603 246.624 100.464 246.99 99.1943 246.99C98.527 246.99 97.4202 246.811 95.874 246.453C95.5973 246.958 95.2881 247.942 94.9463 249.407C94.4906 251.263 94.279 252.907 94.3115 254.339C94.3278 255.185 94.5964 255.608 95.1172 255.608C95.3125 255.608 95.5648 255.56 95.874 255.462C97.762 254.795 100.391 252.76 103.76 249.358C103.971 249.147 104.183 249.041 104.395 249.041C104.704 249.041 104.858 249.188 104.858 249.48C104.858 249.66 104.777 249.847 104.614 250.042ZM101.758 239.251C101.758 238.616 101.619 238.299 101.343 238.299C101.164 238.299 100.903 238.429 100.562 238.689C98.9665 239.975 97.5667 242.229 96.3623 245.452C96.6878 245.501 97.2575 245.55 98.0713 245.599C99.3896 245.647 100.374 245.346 101.025 244.695C101.514 244.207 101.782 243.401 101.831 242.278C101.782 243.108 101.758 242.099 101.758 239.251ZM104.419 232.391C104.468 232.505 104.492 232.618 104.492 232.732C104.492 233.09 104.321 233.27 103.979 233.27C103.752 233.27 103.532 233.131 103.32 232.854C102.165 231.406 100.952 230.185 99.6826 229.192C98.999 228.672 98.4375 228.411 97.998 228.411C97.3307 228.411 96.9971 228.191 96.9971 227.752C96.9971 227.654 97.0703 227.573 97.2168 227.508L98.6084 226.849C98.9014 226.718 99.1618 226.653 99.3896 226.653C99.8291 226.653 100.301 226.922 100.806 227.459C102.498 229.233 103.703 230.877 104.419 232.391ZM121.973 238.641C121.973 240.773 121.688 242.807 121.118 244.744C120.939 245.33 120.695 245.623 120.386 245.623C120.158 245.623 119.653 245.298 118.872 244.646C118.481 244.321 118.384 243.857 118.579 243.255C119.035 241.774 119.263 240.586 119.263 239.69C119.263 239.381 119.198 239.227 119.067 239.227C118.872 239.227 118.555 239.52 118.115 240.105C114.73 244.516 112.199 249.464 110.522 254.949C109.985 256.691 109.53 257.562 109.155 257.562C109.009 257.562 108.366 257.277 107.227 256.707C106.673 256.43 106.486 255.893 106.665 255.096C107.951 249.464 109.334 244.712 110.815 240.838C109.611 242.107 108.846 242.978 108.521 243.45C108.39 243.646 108.211 243.743 107.983 243.743C107.707 243.743 107.568 243.621 107.568 243.377C107.568 243.23 107.633 243.068 107.764 242.889C108.561 241.928 109.627 240.464 110.962 238.494C111.369 237.778 111.776 237.42 112.183 237.42C112.476 237.42 113.07 237.648 113.965 238.104C114.469 238.364 114.551 238.714 114.209 239.153C113.851 239.625 113.175 241.294 112.183 244.158C111.239 246.941 110.588 249.122 110.229 250.701C112.443 245.77 114.958 241.416 117.773 237.64C118.311 236.924 118.742 236.565 119.067 236.565C119.36 236.565 119.759 236.761 120.264 237.151C120.947 237.233 121.379 237.339 121.558 237.469C121.834 237.664 121.973 238.055 121.973 238.641ZM134.985 250.042C131.03 255.104 128.247 257.635 126.636 257.635C125.871 257.635 124.902 257.106 123.73 256.048C122.51 255.478 121.899 254.713 121.899 253.753C121.899 253.574 121.916 253.387 121.948 253.191C122.241 250.962 122.835 248.496 123.73 245.794C123.128 245.485 122.827 245.192 122.827 244.915C122.827 244.687 122.998 244.573 123.34 244.573C123.6 244.573 123.869 244.646 124.146 244.793C125.594 241.538 126.896 239.227 128.052 237.859C128.8 236.948 129.476 236.492 130.078 236.492C130.355 236.492 131.038 236.728 132.129 237.2C132.048 236.712 132.186 236.427 132.544 236.346C132.56 236.346 132.943 236.346 133.691 236.346C134.391 236.346 134.741 236.468 134.741 236.712C134.741 236.761 134.717 236.899 134.668 237.127C134.619 237.355 134.595 237.566 134.595 237.762C134.595 238.348 134.603 239.072 134.619 239.935C134.635 240.797 134.644 241.375 134.644 241.668C134.644 243.686 134.09 245.094 132.983 245.892C131.974 246.624 130.835 246.99 129.565 246.99C128.898 246.99 127.791 246.811 126.245 246.453C125.968 246.958 125.659 247.942 125.317 249.407C124.862 251.263 124.65 252.907 124.683 254.339C124.699 255.185 124.967 255.608 125.488 255.608C125.684 255.608 125.936 255.56 126.245 255.462C128.133 254.795 130.762 252.76 134.131 249.358C134.342 249.147 134.554 249.041 134.766 249.041C135.075 249.041 135.229 249.188 135.229 249.48C135.229 249.66 135.148 249.847 134.985 250.042ZM132.129 239.251C132.129 238.616 131.991 238.299 131.714 238.299C131.535 238.299 131.274 238.429 130.933 238.689C129.338 239.975 127.938 242.229 126.733 245.452C127.059 245.501 127.629 245.55 128.442 245.599C129.761 245.647 130.745 245.346 131.396 244.695C131.885 244.207 132.153 243.401 132.202 242.278C132.153 243.108 132.129 242.099 132.129 239.251ZM157.52 237.444C157.52 238.177 157.324 239.349 156.934 240.96C156.787 241.513 156.624 241.871 156.445 242.034C156.364 242.116 156.087 242.238 155.615 242.4C155.013 242.628 154.639 242.742 154.492 242.742C154.248 242.742 154.126 242.579 154.126 242.254C154.126 242.075 154.159 241.839 154.224 241.546C154.614 239.935 154.761 238.82 154.663 238.201C154.582 237.566 154.769 237.168 155.225 237.005C156.022 236.598 156.535 236.395 156.763 236.395C157.267 236.395 157.52 236.744 157.52 237.444ZM153.613 251.458C153.662 253.411 152.58 254.746 150.366 255.462C150.09 256.146 149.829 256.618 149.585 256.878C149.211 257.269 148.657 257.496 147.925 257.562C147.453 257.594 146.948 257.57 146.411 257.488C145.451 257.342 144.271 257.163 142.871 256.951C142.48 256.886 142.244 256.65 142.163 256.243C142.228 255.804 142.684 255.543 143.53 255.462C144.686 255.381 146.395 255.177 148.657 254.852C149.504 254.656 150.106 254.176 150.464 253.411C150.675 253.021 150.781 252.54 150.781 251.971C150.781 250.945 150.269 249.139 149.243 246.551C148.234 244.028 147.762 242.343 147.827 241.497C147.957 239.463 149.837 238.047 153.467 237.249C153.825 237.168 154.004 237.298 154.004 237.64C154.004 237.835 153.874 237.99 153.613 238.104C151.855 238.868 150.977 239.812 150.977 240.936C150.977 241.375 151.058 241.928 151.221 242.596C151.383 243.247 151.872 244.826 152.686 247.332C153.288 249.139 153.597 250.514 153.613 251.458ZM176.782 239.3C174.618 243.32 172.998 248.04 171.924 253.46C172.38 252.662 172.933 251.645 173.584 250.408C173.665 250.18 173.796 250.066 173.975 250.066C174.219 250.066 174.341 250.221 174.341 250.53C174.341 250.628 174.316 250.734 174.268 250.848C173.226 253.224 172.542 255.055 172.217 256.341C172.021 257.155 171.761 257.562 171.436 257.562C171.11 257.562 170.475 257.244 169.531 256.609C169.027 256.251 168.856 255.617 169.019 254.705C169.702 251.157 170.524 248.073 171.484 245.452C168.343 250.563 165.706 254.331 163.574 256.756C163.102 257.293 162.59 257.562 162.036 257.562C161.58 257.562 161.043 257.374 160.425 257C159.302 256.805 158.74 256.219 158.74 255.242C158.74 255.063 158.757 254.868 158.789 254.656C159.196 250.001 160.042 246.136 161.328 243.06C161.051 243.32 160.636 243.702 160.083 244.207C159.871 244.386 159.709 244.435 159.595 244.354C159.465 244.256 159.489 244.069 159.668 243.792C160.547 242.506 161.068 241.66 161.23 241.253C161.735 239.983 162.264 238.999 162.817 238.299C163.11 237.941 163.42 237.762 163.745 237.762C164.185 237.762 164.827 238.022 165.674 238.543C165.902 238.689 166.016 238.836 166.016 238.982C166.016 238.982 165.837 239.251 165.479 239.788C164.665 241.025 163.802 243.206 162.891 246.331C161.898 249.716 161.393 252.475 161.377 254.607C161.377 255.307 161.523 255.657 161.816 255.657C162.077 255.657 162.5 255.356 163.086 254.754C164.339 253.419 166.154 250.896 168.53 247.186C170.63 243.914 171.899 241.782 172.339 240.789C173.071 239.129 173.665 238.152 174.121 237.859C174.414 237.664 174.674 237.566 174.902 237.566C175.13 237.566 175.57 237.737 176.221 238.079C176.872 238.421 177.197 238.673 177.197 238.836C177.197 238.885 177.14 238.95 177.026 239.031C176.912 239.113 176.831 239.202 176.782 239.3ZM193.457 238.641C193.457 240.773 193.172 242.807 192.603 244.744C192.424 245.33 192.179 245.623 191.87 245.623C191.642 245.623 191.138 245.298 190.356 244.646C189.966 244.321 189.868 243.857 190.063 243.255C190.519 241.774 190.747 240.586 190.747 239.69C190.747 239.381 190.682 239.227 190.552 239.227C190.356 239.227 190.039 239.52 189.6 240.105C186.214 244.516 183.683 249.464 182.007 254.949C181.47 256.691 181.014 257.562 180.64 257.562C180.493 257.562 179.85 257.277 178.711 256.707C178.158 256.43 177.97 255.893 178.149 255.096C179.435 249.464 180.819 244.712 182.3 240.838C181.095 242.107 180.33 242.978 180.005 243.45C179.875 243.646 179.696 243.743 179.468 243.743C179.191 243.743 179.053 243.621 179.053 243.377C179.053 243.23 179.118 243.068 179.248 242.889C180.046 241.928 181.112 240.464 182.446 238.494C182.853 237.778 183.26 237.42 183.667 237.42C183.96 237.42 184.554 237.648 185.449 238.104C185.954 238.364 186.035 238.714 185.693 239.153C185.335 239.625 184.66 241.294 183.667 244.158C182.723 246.941 182.072 249.122 181.714 250.701C183.927 245.77 186.442 241.416 189.258 237.64C189.795 236.924 190.226 236.565 190.552 236.565C190.845 236.565 191.243 236.761 191.748 237.151C192.432 237.233 192.863 237.339 193.042 237.469C193.319 237.664 193.457 238.055 193.457 238.641ZM233.008 229.095C232.633 232.22 231.657 236.004 230.078 240.447C228.06 246.079 225.757 250.416 223.169 253.46C224.048 253.655 224.886 253.753 225.684 253.753C227.734 253.753 229.443 253.102 230.811 251.8C230.973 251.637 231.136 251.556 231.299 251.556C231.592 251.556 231.738 251.735 231.738 252.093C231.738 252.207 231.714 252.329 231.665 252.459C231.242 253.436 230.623 254.502 229.81 255.657C229.045 256.731 228.174 257.269 227.197 257.269C226.839 257.269 226.326 257.228 225.659 257.146C225.415 257.146 223.649 256.78 220.361 256.048C218.978 257.106 217.497 257.659 215.918 257.708C215.072 257.724 214.266 257.659 213.501 257.513C212.622 257.35 212.24 257.13 212.354 256.854C209.684 256.202 207.837 255.446 206.812 254.583C205.396 253.395 204.728 251.564 204.81 249.09C204.972 244.37 206.38 239.316 209.033 233.929C211.165 229.599 213.224 226.523 215.21 224.7C216.04 223.935 216.805 223.553 217.505 223.553C218.205 223.553 218.913 223.748 219.629 224.139C219.922 224.301 220.85 224.904 222.412 225.945C223.682 224.562 224.764 223.561 225.659 222.942C226.196 222.584 226.75 222.405 227.319 222.405C228.28 222.405 229.142 222.885 229.907 223.846C231.258 223.927 232.129 224.106 232.52 224.383C232.992 224.692 233.228 225.343 233.228 226.336C233.228 226.906 233.154 227.825 233.008 229.095ZM229.761 227.044C229.842 225.823 229.557 225.213 228.906 225.213C228.385 225.213 227.604 225.579 226.562 226.312C224.219 227.923 221.387 230.299 218.066 233.44C217.692 233.799 217.358 233.986 217.065 234.002C216.789 234.035 216.65 233.912 216.65 233.636C216.65 233.375 216.772 233.066 217.017 232.708C218.433 230.494 219.881 228.574 221.362 226.946C220.516 226.312 219.759 225.994 219.092 225.994C218.685 225.994 218.327 226.116 218.018 226.36C216.211 227.679 214.168 230.6 211.89 235.125C209.172 240.48 207.91 245.175 208.105 249.212C208.187 250.856 208.504 252.101 209.058 252.947C209.546 253.68 210.417 254.363 211.67 254.998C212.63 255.486 213.607 255.69 214.6 255.608C215.316 255.543 216.048 255.307 216.797 254.9C216.162 254.673 214.998 254.176 213.306 253.411C212.85 253.2 212.622 252.581 212.622 251.556C212.622 250.888 212.703 250.254 212.866 249.651C212.899 249.358 213.045 249.179 213.306 249.114C213.517 249.065 213.704 249.114 213.867 249.261C215.251 250.579 217.179 251.694 219.653 252.605C222.176 249.936 224.406 246.128 226.343 241.18C228.296 236.232 229.435 231.52 229.761 227.044ZM251.685 239.3C249.52 243.32 247.9 248.04 246.826 253.46C247.282 252.662 247.835 251.645 248.486 250.408C248.568 250.18 248.698 250.066 248.877 250.066C249.121 250.066 249.243 250.221 249.243 250.53C249.243 250.628 249.219 250.734 249.17 250.848C248.128 253.224 247.445 255.055 247.119 256.341C246.924 257.155 246.663 257.562 246.338 257.562C246.012 257.562 245.378 257.244 244.434 256.609C243.929 256.251 243.758 255.617 243.921 254.705C244.604 251.157 245.426 248.073 246.387 245.452C243.245 250.563 240.609 254.331 238.477 256.756C238.005 257.293 237.492 257.562 236.938 257.562C236.483 257.562 235.946 257.374 235.327 257C234.204 256.805 233.643 256.219 233.643 255.242C233.643 255.063 233.659 254.868 233.691 254.656C234.098 250.001 234.945 246.136 236.23 243.06C235.954 243.32 235.539 243.702 234.985 244.207C234.774 244.386 234.611 244.435 234.497 244.354C234.367 244.256 234.391 244.069 234.57 243.792C235.449 242.506 235.97 241.66 236.133 241.253C236.637 239.983 237.166 238.999 237.72 238.299C238.013 237.941 238.322 237.762 238.647 237.762C239.087 237.762 239.73 238.022 240.576 238.543C240.804 238.689 240.918 238.836 240.918 238.982C240.918 238.982 240.739 239.251 240.381 239.788C239.567 241.025 238.704 243.206 237.793 246.331C236.8 249.716 236.296 252.475 236.279 254.607C236.279 255.307 236.426 255.657 236.719 255.657C236.979 255.657 237.402 255.356 237.988 254.754C239.242 253.419 241.056 250.896 243.433 247.186C245.532 243.914 246.802 241.782 247.241 240.789C247.974 239.129 248.568 238.152 249.023 237.859C249.316 237.664 249.577 237.566 249.805 237.566C250.033 237.566 250.472 237.737 251.123 238.079C251.774 238.421 252.1 238.673 252.1 238.836C252.1 238.885 252.043 238.95 251.929 239.031C251.815 239.113 251.733 239.202 251.685 239.3ZM265.649 250.042C261.694 255.104 258.911 257.635 257.3 257.635C256.535 257.635 255.566 257.106 254.395 256.048C253.174 255.478 252.563 254.713 252.563 253.753C252.563 253.574 252.58 253.387 252.612 253.191C252.905 250.962 253.499 248.496 254.395 245.794C253.792 245.485 253.491 245.192 253.491 244.915C253.491 244.687 253.662 244.573 254.004 244.573C254.264 244.573 254.533 244.646 254.81 244.793C256.258 241.538 257.56 239.227 258.716 237.859C259.465 236.948 260.14 236.492 260.742 236.492C261.019 236.492 261.702 236.728 262.793 237.2C262.712 236.712 262.85 236.427 263.208 236.346C263.224 236.346 263.607 236.346 264.355 236.346C265.055 236.346 265.405 236.468 265.405 236.712C265.405 236.761 265.381 236.899 265.332 237.127C265.283 237.355 265.259 237.566 265.259 237.762C265.259 238.348 265.267 239.072 265.283 239.935C265.299 240.797 265.308 241.375 265.308 241.668C265.308 243.686 264.754 245.094 263.647 245.892C262.638 246.624 261.499 246.99 260.229 246.99C259.562 246.99 258.455 246.811 256.909 246.453C256.632 246.958 256.323 247.942 255.981 249.407C255.526 251.263 255.314 252.907 255.347 254.339C255.363 255.185 255.632 255.608 256.152 255.608C256.348 255.608 256.6 255.56 256.909 255.462C258.797 254.795 261.426 252.76 264.795 249.358C265.007 249.147 265.218 249.041 265.43 249.041C265.739 249.041 265.894 249.188 265.894 249.48C265.894 249.66 265.812 249.847 265.649 250.042ZM262.793 239.251C262.793 238.616 262.655 238.299 262.378 238.299C262.199 238.299 261.938 238.429 261.597 238.689C260.002 239.975 258.602 242.229 257.397 245.452C257.723 245.501 258.293 245.55 259.106 245.599C260.425 245.647 261.41 245.346 262.061 244.695C262.549 244.207 262.817 243.401 262.866 242.278C262.817 243.108 262.793 242.099 262.793 239.251ZM268.75 227.508C268.88 227.573 268.945 227.654 268.945 227.752C268.945 228.191 268.612 228.411 267.944 228.411C267.505 228.411 266.903 228.704 266.138 229.29C264.933 230.25 263.77 231.438 262.646 232.854C262.435 233.131 262.207 233.27 261.963 233.27C261.637 233.27 261.475 233.09 261.475 232.732C261.475 232.618 261.499 232.505 261.548 232.391C262.248 230.877 263.444 229.233 265.137 227.459C265.658 226.922 266.138 226.653 266.577 226.653C266.789 226.653 267.041 226.718 267.334 226.849L268.75 227.508ZM287.109 219.109C287.305 219.256 287.402 219.419 287.402 219.598C287.402 219.923 287.207 220.086 286.816 220.086C286.67 220.086 286.515 220.037 286.353 219.939C285.604 219.549 285.042 219.354 284.668 219.354C283.659 219.354 282.536 220.354 281.299 222.356C276.904 229.469 273.722 238.803 271.753 250.359C273.446 247.495 274.707 245.468 275.537 244.28C277.23 241.839 278.988 239.796 280.811 238.152C281.689 237.355 282.479 236.956 283.179 236.956C283.537 236.956 284.098 237.184 284.863 237.64C286.312 238.323 286.971 239.357 286.841 240.74C286.564 243.898 285.775 246.998 284.473 250.042C283.203 253.021 281.698 255.356 279.956 257.049C279.468 257.521 278.963 257.757 278.442 257.757C277.384 257.757 275.92 256.552 274.048 254.144C273.836 253.867 273.73 253.631 273.73 253.436C273.73 253.191 273.869 253.069 274.146 253.069C274.422 253.069 274.691 253.183 274.951 253.411C275.911 254.225 276.733 254.632 277.417 254.632C278.084 254.632 278.727 254.241 279.346 253.46C280.469 252.028 281.486 250.083 282.397 247.625C283.439 244.858 283.96 242.384 283.96 240.203C283.96 239.357 283.675 238.934 283.105 238.934C282.78 238.934 282.414 239.104 282.007 239.446C280.005 241.172 277.97 243.629 275.903 246.819C273.722 250.221 272.135 253.501 271.143 256.658C270.964 257.26 270.736 257.562 270.459 257.562C270.329 257.562 270.158 257.488 269.946 257.342C269.116 256.788 268.644 256.463 268.53 256.365C268.205 256.04 268.042 255.617 268.042 255.096C268.042 254.835 268.083 254.518 268.164 254.144C270.068 243.776 272.51 234.946 275.488 227.654C277.734 222.169 279.753 218.605 281.543 216.961C282.015 216.521 282.471 216.302 282.91 216.302C283.366 216.302 283.944 216.57 284.644 217.107C285.457 217.775 286.279 218.442 287.109 219.109ZM301.245 250.042C297.29 255.104 294.507 257.635 292.896 257.635C292.131 257.635 291.162 257.106 289.99 256.048C288.77 255.478 288.159 254.713 288.159 253.753C288.159 253.574 288.175 253.387 288.208 253.191C288.501 250.962 289.095 248.496 289.99 245.794C289.388 245.485 289.087 245.192 289.087 244.915C289.087 244.687 289.258 244.573 289.6 244.573C289.86 244.573 290.129 244.646 290.405 244.793C291.854 241.538 293.156 239.227 294.312 237.859C295.06 236.948 295.736 236.492 296.338 236.492C296.615 236.492 297.298 236.728 298.389 237.2C298.307 236.712 298.446 236.427 298.804 236.346C298.82 236.346 299.202 236.346 299.951 236.346C300.651 236.346 301.001 236.468 301.001 236.712C301.001 236.761 300.977 236.899 300.928 237.127C300.879 237.355 300.854 237.566 300.854 237.762C300.854 238.348 300.863 239.072 300.879 239.935C300.895 240.797 300.903 241.375 300.903 241.668C300.903 243.686 300.35 245.094 299.243 245.892C298.234 246.624 297.095 246.99 295.825 246.99C295.158 246.99 294.051 246.811 292.505 246.453C292.228 246.958 291.919 247.942 291.577 249.407C291.121 251.263 290.91 252.907 290.942 254.339C290.959 255.185 291.227 255.608 291.748 255.608C291.943 255.608 292.196 255.56 292.505 255.462C294.393 254.795 297.021 252.76 300.391 249.358C300.602 249.147 300.814 249.041 301.025 249.041C301.335 249.041 301.489 249.188 301.489 249.48C301.489 249.66 301.408 249.847 301.245 250.042ZM298.389 239.251C298.389 238.616 298.25 238.299 297.974 238.299C297.795 238.299 297.534 238.429 297.192 238.689C295.597 239.975 294.198 242.229 292.993 245.452C293.319 245.501 293.888 245.55 294.702 245.599C296.021 245.647 297.005 245.346 297.656 244.695C298.145 244.207 298.413 243.401 298.462 242.278C298.413 243.108 298.389 242.099 298.389 239.251ZM316.455 239.007C316.455 241.53 316.105 243.564 315.405 245.11C315.112 245.745 314.657 245.892 314.038 245.55C313.127 245.045 312.671 244.63 312.671 244.305C312.671 244.158 312.777 244.004 312.988 243.841C313.542 242.278 313.794 241.066 313.745 240.203C313.713 239.471 313.346 239.104 312.646 239.104C312.565 239.104 312.443 239.088 312.28 239.056C312.118 239.007 311.987 238.982 311.89 238.982C311.32 238.982 310.62 239.52 309.79 240.594C308.879 241.798 308.008 243.475 307.178 245.623C306.494 247.397 306.038 248.919 305.811 250.188C305.632 251.1 305.542 251.93 305.542 252.679C305.542 255.169 306.331 256.39 307.91 256.341C309.294 256.308 311.32 254.575 313.989 251.141C314.25 250.831 314.486 250.677 314.697 250.677C314.909 250.677 315.015 250.807 315.015 251.067C315.015 251.198 314.974 251.36 314.893 251.556C314.03 253.672 312.899 255.535 311.499 257.146C311.157 257.553 310.555 257.757 309.692 257.757C309.172 257.757 308.537 257.651 307.788 257.439C306.291 257.342 305.094 256.862 304.199 255.999C303.239 255.071 302.791 253.859 302.856 252.361C302.922 250.636 303.524 248.243 304.663 245.184C305.884 241.863 307.161 239.454 308.496 237.957C309.115 237.273 309.635 236.932 310.059 236.932C310.482 236.932 311.312 237.29 312.549 238.006C313.216 237.762 313.875 237.64 314.526 237.64C315.812 237.64 316.455 238.095 316.455 239.007Z" fill="#F9EC93"/>
<defs>
<clipPath id="clip0_227_3296">
<rect width="320" height="266" fill="white"/>
</clipPath>
</defs>
</svg>
