<svg width="1440" height="765" viewBox="0 0 1440 765" fill="none" xmlns="http://www.w3.org/2000/svg">
<g clip-path="url(#clip0_444_2946)">
<path d="M1139.69 564.934L1145.53 560.267H1161.87V578.932H1177.49V547.097L1175.88 545.487V541.147H1193.39V533.611H1213.23V529.738H1231.91V532.538H1252.92V534.358H1263.42V540.494L1265.76 542.827H1271.59L1266.92 546.91V555.659L1286.77 555.356V569.658L1305.44 562.659H1310.11L1313.61 557.864V538.103H1317.12L1320.62 541.532H1331.12V539.397H1341.63V541.381H1356.8V538.488H1362.64V541.602L1385.98 541.229V538.103L1396.49 537.881V541.602L1431.51 541.381V538.371H1440.59V543.9H1444.35L1447.85 536.901L1518.92 532.9V524.069H1524.89V534.568L1527.37 538.068H1538.9V764.965H-55V209.061H-18.6632L-6.55866 220.796L2.77943 265.126L7.44847 266.292L10.9503 273.292H21.4556L27.2919 280.291H40.1318L52.9717 298.956V251.127L118.338 128.637V126.304L117.171 125.138L118.338 123.971V116.972L117.171 115.805L118.338 114.639L119.506 94.8069L120.673 114.639L121.84 115.805L120.673 116.972V123.971L121.84 125.138L120.673 126.304V128.637L126.509 135.637V128.637L125.342 127.471L126.509 126.304L127.676 106.473L128.844 126.304L130.011 127.471L128.844 128.637V141.47L152.189 227.796V136.803L167.363 133.304L173.2 140.303L172.032 238.295L176.701 249.96V218.463L174.367 217.297L181.37 205.631L182.538 182.299L183.705 205.631L188.374 207.964L193.043 221.963H190.708V255.793H207.05V244.128H204.716L207.05 241.794V237.758H214.054L215.653 239.776V242.378L217.52 244.128H215.186V255.793H315.57V247.627H313.236L315.57 245.294V238.295H321.407L322.574 239.461V245.294L324.908 247.627H322.574V255.793H361.094V252.725H359.926V249.96H361.094V243.369H363.428V250.287H364.595V252.422H363.428V261.626L376.268 283.791H406.955V261.474H405.485V259.293H404.317V258.126H403.15V254.627H400.815V252.294H399.648V160.135H396.823C396.823 160.135 404.317 161.301 412.488 106.473V100.371H411.321V98.3066H412.675L413.702 76.1418L414.869 98.3066H416.037V100.57H414.869V106.473C414.869 106.473 417.204 123.971 418.371 125.138H427.709L430.044 111.139L431.211 120.471L434.713 114.639L438.215 93.6404L439.382 104.139L447.553 85.4744L448.72 72.6421L449.887 81.9747L453.389 77.3084V65.6427H458.151L462.727 57.4768V45.4611L463.894 53.9771L466.229 45.8111V42.4397H464.034V38.8117H466.229L468.563 0.314941L469.731 38.8117H472.065V42.5797H469.731V45.7761L473.232 57.4418L486.072 84.2728L487.239 74.9403L488.407 88.9391L496.578 105.271L497.745 97.1051L500.079 112.27L503.581 118.103H505.916L507.083 109.937L508.25 118.103H515.254V114.907H519.923V138.95L523.425 113.507V107.453H522.257V105.341H523.425L524.592 82.0097L525.759 105.341H526.926V107.453H525.759V113.507C525.759 113.507 531.595 154.337 538.599 162.503H536.264V253.495H535.097V255.828H532.763V258.161H531.595V261.661H530.428V338.655H584.262L585.254 326.989L586.422 340.988L591.091 345.654L592.258 335.155L593.425 349.154L602.763 358.486L623.774 315.323L624.941 294.325L626.108 315.323L641.283 346.821H645.952L647.119 326.989L649.454 340.988H652.955L654.123 335.155L655.29 340.988H659.959C659.959 340.988 662.294 350.32 664.628 351.487V336.321H662.294L670.896 317.073L671.632 305.991L672.799 314.157L683.304 288.492L684.472 270.994L685.639 288.492L697.311 314.157L698.479 309.49L699.646 318.823L706.649 331.655H705.482V344.487L717.155 340.988L718.322 331.655L719.489 340.988L731.162 351.487L733.497 347.987V342.271H734.664L753.34 304.789V282.624H748.671V280.291H753.34V274.458H754.507V280.291H759.176V282.776L754.507 282.624V304.789L776.685 346.786L779.02 344.452L780.187 336.286L781.354 344.452L784.856 349.119V362.219L787.191 358.463L788.358 347.964L789.525 358.463L794.194 365.462V380.628L797.696 385.294L795.361 388.794V392.293H801.373L803.532 401.626C803.532 401.626 814.038 405.126 814.038 417.958H819.068V422.776H822.208L819.944 425.039L819.874 430.79H822.208L825.127 433.706L822.792 436.04V457.621H829.387V466.219C829.387 466.219 838.55 461.121 843.219 461.121C847.888 461.121 856.059 450.622 856.059 450.622L857.226 402.792L859.561 450.622C859.561 450.622 864.23 461.121 873.568 462.287C882.906 463.454 889.909 470.453 889.909 476.286H884.073V512.45H1123.36V577.778H1139.7L1139.69 564.934Z" fill="#F9EC93"/>
<path d="M1142.8 564.619L1148.63 559.952H1164.97V578.617H1180.59V546.782L1178.98 545.172V540.832H1196.49V533.296H1216.33V529.423H1235.01V532.153H1256.02V533.985H1266.53V540.121L1268.86 542.454H1274.7L1270.03 546.537V555.286L1289.87 554.983V569.285L1308.55 562.286H1313.22L1316.72 557.491V537.788H1320.22L1323.72 541.206H1334.23V539.082H1344.73V541.054H1359.91V538.173H1365.74V541.287L1389.09 540.902V537.788L1399.59 537.554V541.287L1434.61 541.054V538.091H1443.69V543.62H1447.45L1450.95 536.621L1522.03 532.62V523.789H1527.99V534.288L1530.48 537.788H1542V764.685H-51.895V208.734H-15.5582L-3.45368 220.481L5.88441 264.811L10.5535 265.977L14.0552 272.977H24.5606L30.3969 279.976H43.2368L56.0766 298.641V250.812L121.443 128.322V125.989L120.276 124.823L121.443 123.656V116.657L120.276 115.49L121.443 114.324L122.611 94.492L123.778 114.324L124.945 115.49L123.778 116.657V123.656L124.945 124.823L123.778 125.989V128.322L129.614 135.322V128.322L128.447 127.156L129.614 125.989L130.781 106.158L131.949 125.989L133.116 127.156L131.949 128.322V141.155L155.294 227.481V136.488L170.468 132.989L176.305 139.988L175.137 237.98L179.806 249.645V218.148L177.472 216.982L184.475 205.316L185.643 181.985L186.81 205.316L191.479 207.649L196.148 221.648H193.813V255.478H210.155V243.813H207.821L210.155 241.479V237.396H217.159L218.758 239.415V242.063L220.625 243.813H218.291V255.478H318.675V247.312H316.341L318.675 244.979V237.98H324.512L325.679 239.146V244.979L328.013 247.312H325.679V255.478H364.199V252.41H363.031V249.645H364.199V243.054H366.533V249.972H367.7V252.107H366.533V261.311L379.373 283.476H410.025V261.159H408.589V258.978H407.422V257.811H406.255V254.312H403.92V251.979H402.753V159.82H399.94C399.94 159.82 407.422 160.986 415.593 106.158V100.056H414.426V97.9917H415.733L416.76 75.8269L417.928 97.9917H419.095V100.243H417.928V106.158C417.928 106.158 420.262 123.656 421.429 124.823H430.767L433.102 110.824L434.269 120.156L437.771 114.324L441.273 93.3254L442.44 103.825L450.611 85.1594L451.778 72.3272L452.945 81.6597L456.447 76.9935V65.3278H461.221L465.785 57.1618V45.1462L466.953 53.6621L469.287 45.4961V42.1248H467.093V38.4967H469.287L471.622 0L472.789 38.4967H475.123V42.2997H472.789V45.4961L476.291 57.1618L489.131 83.9929L490.298 74.6603L491.465 88.6591L499.636 104.991L500.803 96.8251L503.138 111.99L506.639 117.823H508.974L510.141 109.657L511.308 117.823H518.312V114.557H522.981V138.588L526.483 113.157V107.091H525.316V104.991H526.483L527.65 81.6597L528.817 104.991H529.985V107.091H528.817V113.157C528.817 113.157 534.654 153.987 541.657 162.153H539.323V253.145H538.155V255.478H535.821V257.811H534.654V261.311H533.486V338.305H587.356L588.348 326.639L589.515 340.638L594.184 345.304L595.351 334.805L596.519 348.804L605.857 358.136L626.867 314.973L628.035 293.975L629.202 314.973L644.376 346.471H649.045L650.213 326.639L652.547 340.638H656.049L657.216 334.805L658.383 340.638H663.052C663.052 340.638 665.387 349.97 667.721 351.137V335.971H665.387L673.99 316.723L674.725 305.641L675.892 313.807L686.398 288.142L687.565 270.644L688.732 288.142L700.405 313.807L701.572 309.14L702.739 318.473L709.743 331.305H708.576V344.137L720.248 340.638L721.415 331.305L722.583 340.638L734.255 351.137L736.59 347.637V341.956H737.757L756.433 304.474V282.309H751.764V279.976H756.433V274.143H757.601V279.976H762.27V282.461L757.601 282.309V304.474L779.779 346.471L782.113 344.137L783.28 335.971L784.448 344.137L787.949 348.804V361.893L790.284 358.136L791.451 347.637L792.618 358.136L797.287 365.136V380.301L800.789 384.967L798.455 388.467V391.967H804.466L806.626 401.299C806.626 401.299 817.131 404.799 817.131 417.631H822.173V422.449H825.302L823.049 424.712L822.967 430.463H825.302L828.22 433.38L825.885 435.713V457.294H832.48V465.892C832.48 465.892 841.643 460.794 846.312 460.794C850.981 460.794 859.152 450.295 859.152 450.295L860.32 402.466L862.654 450.295C862.654 450.295 867.323 460.794 876.661 461.961C885.999 463.127 893.003 470.127 893.003 475.96H887.167V512.123H1126.46V577.451H1142.8V564.619Z" fill="#263546"/>
<path d="M472.789 95.6584V101.386L468.12 114.324V109.657H465.785V118.99L463.451 125.989V123.656H461.116V168.417H463.276L463.451 130.655L473.956 102.658V95.6584H472.789Z" fill="#F9EC93"/>
<path d="M458.782 215.815L456.447 232.147L441.273 274.143H438.938V277.643H441.273V285.809H444.098V277.643H442.44V274.143H444.775L459.949 232.147L458.782 215.815Z" fill="#F9EC93"/>
<path d="M400.419 330.139H396.368L399.251 327.805L412.091 290.475L413.258 278.81L414.426 290.475L400.419 330.139Z" fill="#F9EC93"/>
<path d="M347.308 266.561L346.141 278.226C346.141 278.226 341.472 288.725 341.472 287.559C341.472 286.392 339.137 277.06 339.137 277.06L337.655 287.559V292.412L340.305 294.558V298.058L333.301 300.391L328.632 308.557L329.799 309.724V330.722H332.134V308.557L330.967 307.39L334.468 301.558L341.472 299.224V293.392L339.137 291.058V288.725H342.639L348.476 278.226L347.308 266.561Z" fill="#F9EC93"/>
<path d="M292.657 266.841L291.49 278.506C291.49 278.506 286.821 289.005 286.821 287.839C286.821 286.672 284.486 277.34 284.486 277.34L283.004 287.839V292.692L285.7 294.745V298.245L278.697 300.578L274.028 308.744L275.195 309.91V330.908H277.529V308.744L276.362 307.577L279.864 301.744L286.867 299.411V293.578L284.533 291.245V288.912H288.035L293.871 278.413L292.657 266.841Z" fill="#F9EC93"/>
<path d="M237.796 266.841L236.628 278.506C236.628 278.506 231.959 289.005 231.959 287.839C231.959 286.672 229.625 277.34 229.625 277.34L228.143 287.839V292.692L230.839 294.745V298.245L223.835 300.578L219.166 308.744L220.334 309.91V330.908H222.668V308.744L221.501 307.577L225.003 301.744L232.006 299.411V293.578L229.672 291.245V288.912H233.173L239.01 278.413L237.796 266.841Z" fill="#F9EC93"/>
<path d="M427.849 320.223L432.518 306.224L433.685 298.058V306.224L429.016 320.223V334.222H427.849V320.223Z" fill="#F9EC93"/>
<path d="M460.532 321.389L465.202 307.391L466.369 299.225V307.391L461.7 321.389V330.139L460.532 327.374V321.389Z" fill="#F9EC93"/>
<path d="M455.864 314.39L454.253 321.494L446.525 331.888L445.358 328.389L444.191 335.388V358.3L445.358 358.719V399.549H447.284V357.553L446.07 357.121V334.222L455.864 321.389V314.39Z" fill="#F9EC93"/>
<path d="M474.54 328.389L468.703 340.054H470.303L475.707 330.722L474.54 328.389Z" fill="#F9EC93"/>
<path d="M434.596 328.389L428.76 340.054H430.347L435.763 330.722L434.596 328.389Z" fill="#F9EC93"/>
<path d="M548.077 362.219C548.077 362.219 551.579 352.887 551.579 351.72C551.579 350.554 552.746 335.388 552.746 335.388V351.72L549.244 361.053H551.579V362.219H549.244L551.579 370.385H550.412" fill="#F9EC93"/>
<path d="M501.387 361.053C501.387 361.053 504.888 351.72 504.888 350.554C504.888 349.387 506.056 334.222 506.056 334.222V350.554L502.554 359.886H504.888V361.053H502.554L504.888 369.219H503.721" fill="#F9EC93"/>
<path d="M518.896 379.718H516.561V378.551H517.728C517.728 378.551 528.234 362.219 528.234 361.053C528.234 359.886 530.568 349.387 530.568 349.387V361.053L518.896 379.718Z" fill="#F9EC93"/>
<path d="M567.92 379.718H565.586V378.551H566.753C566.753 378.551 577.259 362.219 577.259 361.053C577.259 359.886 579.593 349.387 579.593 349.387V361.053L567.92 379.718Z" fill="#F9EC93"/>
<path d="M398.668 300.391C398.668 300.391 402.17 291.059 402.17 289.892C402.17 288.725 403.337 273.56 403.337 273.56V289.892L399.835 299.225H402.17V300.391H399.835L402.17 308.557H401.002" fill="#F9EC93"/>
<path d="M423.18 300.391C423.18 300.391 426.682 291.059 426.682 289.892C426.682 288.725 427.849 273.56 427.849 273.56V289.892L424.347 299.225H426.682V300.391H424.347L426.682 308.557H425.515" fill="#F9EC93"/>
<path d="M497.885 141.738C497.885 141.738 501.387 132.405 501.387 131.239C501.387 130.072 502.554 114.907 502.554 114.907V131.239L499.052 140.571H501.387V141.738H499.052L501.387 149.904H500.219" fill="#F9EC93"/>
<path d="M630.953 340.054V342.493L624.358 352.887H625.875C626.284 370.385 626.284 372.718 626.284 372.718H624.358V378.248H627.451V351.72L633.287 342.388V340.054H630.953Z" fill="#F9EC93"/>
<path d="M485.045 124.24C485.045 124.24 488.547 114.907 488.547 113.74C488.547 112.574 489.714 97.4084 489.714 97.4084V113.74L486.212 123.073H488.547V124.24H486.212L488.547 132.405H487.379" fill="#F9EC93"/>
<path d="M450.027 123.073C450.027 123.073 453.529 113.74 453.529 112.574C453.529 111.407 454.696 96.2417 454.696 96.2417V112.574L451.194 121.906H453.529V123.073H451.194L453.529 131.239H452.362" fill="#F9EC93"/>
<path d="M439.522 137.072C439.522 137.072 443.024 127.739 443.024 126.573C443.024 125.406 444.191 110.241 444.191 110.241V126.573L440.689 135.905H443.024V137.072H440.689L443.024 145.238H441.856" fill="#F9EC93"/>
<path d="M591.266 361.053C591.266 361.053 594.767 351.72 594.767 350.553C594.767 350.192 594.884 348.465 595.036 346.26C595.935 348.22 595.935 348.22 595.935 348.22V350.553L592.433 359.886H594.767V361.053H592.433L594.767 369.219H593.6" fill="#F9EC93"/>
<path d="M201.401 286.392H199.066L203.735 279.393H204.902L201.401 286.392Z" fill="#F9EC93"/>
<path d="M266.825 286.392H264.491L269.16 279.393H270.327L266.825 286.392Z" fill="#F9EC93"/>
<path d="M319.072 287.559H316.738L321.407 280.56H322.574L319.072 287.559Z" fill="#F9EC93"/>
<path d="M208.404 306.224H204.902V302.724L213.073 295.725L215.151 298.933L208.404 306.224Z" fill="#F9EC93"/>
<path d="M263.265 307.39H259.764V303.891L267.935 296.891L270.012 300.099L263.265 307.39Z" fill="#F9EC93"/>
<path d="M316.959 308.557H313.458V305.058L321.628 298.058L323.706 301.266L316.959 308.557Z" fill="#F9EC93"/>
<path d="M369.486 308.557H365.984V305.058L374.155 298.058L376.233 301.266L369.486 308.557Z" fill="#F9EC93"/>
<path d="M385.828 317.89C385.828 317.89 389.33 308.557 389.33 307.391C389.33 306.224 390.497 291.059 390.497 291.059V307.391L386.995 316.723H389.33V317.89H386.995L389.33 326.056H388.162" fill="#F9EC93"/>
<path d="M523.565 139.405L516.561 163.903H518.767L518.896 169.736H516.561V180.55H518.545L518.896 251.395H520.063V254.615H521.394V258.395H523.565V260.319H525.281V263.749H527.066V257.811H524.732V252.562H521.814V249.132H521.23V160.403L523.565 139.405Z" fill="#F9EC93"/>
<path d="M684.647 359.886L681.145 390.217H682.896V396.353C682.896 396.353 684.693 397.823 685.23 396.353C685.767 394.883 685.23 387.685 685.23 387.685H683.304L684.647 359.886Z" fill="#F9EC93"/>
<path d="M669.472 356.386L664.803 373.885C664.803 373.885 667.138 372.718 667.138 373.885V391.64L671.807 391.383V388.898L669.472 389.05V371.552H667.138L669.472 356.386Z" fill="#F9EC93"/>
<path d="M674.141 364.552V331.888H670.639L686.397 288.142H687.39L675.308 329.555H676.476V364.552L692.817 351.72L698.654 362.219L692.817 352.887L676.476 366.885L674.141 364.552Z" fill="#F9EC93"/>
<path d="M690.483 309.724C690.483 310.89 685.814 326.056 685.814 326.056H688.148V336.555H689.713C689.316 336.555 689.713 324.889 689.713 324.889H688.148L690.483 309.724Z" fill="#F9EC93"/>
<path d="M764.02 333.055C764.02 334.222 759.351 349.387 759.351 349.387H761.686V359.886H763.25C762.853 359.886 763.25 348.221 763.25 348.221H761.686L764.02 333.055Z" fill="#F9EC93"/>
<path d="M780.362 348.22C780.362 349.387 775.693 364.552 775.693 364.552H778.028V375.052H779.592C779.195 375.052 779.592 363.386 779.592 363.386H778.028L780.362 348.22Z" fill="#F9EC93"/>
<path d="M711.494 396.05L721.999 357.553L713.828 393.717H716.163L716.746 411.868H714.995V396.05H711.494Z" fill="#F9EC93"/>
<path d="M736.193 357.553L744.177 344.721L739.508 355.22V364.552H737.442V357.553H736.193Z" fill="#F9EC93"/>
<path d="M283.623 424.047H206.269V567.617H283.623V424.047Z" fill="#F9EC93"/>
<path d="M372.032 424.047H294.677V567.617H372.032V424.047Z" fill="#F9EC93"/>
<path d="M261.305 447.379C261.305 447.379 257.804 449.863 259.169 451.648C259.169 451.998 259.881 453.072 259.169 453.072C258.457 453.072 258.107 453.783 258.457 454.495C258.107 454.845 255.609 454.495 255.259 458.053C252.049 459.476 246.353 480.824 245.641 495.383C244.929 509.942 235.684 541.276 235.684 541.276C235.684 541.276 244.754 549.278 247.251 544.659C247.902 544.236 248.674 544.041 249.447 544.104C250.221 544.167 250.951 544.486 251.524 545.009C251.524 545.009 251.162 553.91 252.948 555.683C251.524 556.756 251.162 557.106 251.874 559.603C250.812 560.664 251.162 561.026 250.45 561.026C249.738 561.026 249.026 560.314 247.964 562.799C247.964 562.799 242.267 565.645 240.131 568.492C237.633 569.203 234.785 570.265 233.361 574.185C230.328 575.584 227.651 577.649 225.529 580.227C223.042 580.939 223.043 580.227 222.33 582.724C220.906 582.724 220.545 584.497 217.346 584.147C215.004 585.283 212.844 586.761 210.938 588.533C211.932 591.23 213.529 593.664 215.607 595.649C216.114 595.336 216.591 594.977 217.031 594.576C217.031 594.576 219.879 607.408 230.56 607.408C234.482 607.408 227.058 603.5 227.058 600.292C227.306 597.384 227.906 594.517 228.844 591.753C228.844 591.753 233.116 593.538 258.387 570.755C258.387 579.294 259.099 582.141 258.387 584.625C257.675 587.11 255.212 598.858 257.687 602.777C257.053 605.938 256.931 609.179 257.325 612.378H263.266L263.371 610.605C263.371 610.605 264.083 613.09 275.114 613.09C280.81 613.09 283.658 612.028 283.658 610.605C283.658 609.182 280.355 608.365 275.721 608.365C273.585 608.365 271.449 606.58 270.025 604.095C269.313 602.672 272.161 611.561 272.873 579.189C273.235 573.496 274.659 574.208 273.235 571.023C274.297 568.888 276.433 556.441 273.585 553.956C273.992 553.153 274.142 552.245 274.015 551.354C273.887 550.462 273.489 549.632 272.873 548.975C271.449 547.552 275.009 544.705 275.009 544.705C275.009 544.705 274.297 524.069 275.371 520.861C276.445 517.653 282.841 494.543 270.387 461.098C270.212 460.519 270.091 459.925 270.025 459.324H271.099C271.099 459.324 270.737 457.54 271.811 457.19L271.099 456.478V454.693C272.412 455.191 273.793 455.49 275.196 455.58C277.437 455.58 277.145 452.92 277.145 452.92C277.145 452.92 278.219 452.558 277.857 452.208C278.219 452.208 278.931 451.135 278.569 450.785C278.207 450.435 279.281 449.362 279.281 449.362C279.281 449.362 280.705 449.712 280.705 448.65C280.705 447.589 278.931 445.442 279.643 444.381C280.355 443.319 281.067 441.884 280.705 437.265C280.355 435.13 282.129 435.13 281.067 433.707C280.005 432.283 271.449 424.094 264.329 429.787C257.208 435.48 261.13 447.25 261.13 447.25" fill="#263546"/>
<path d="M267.889 460.409C269.313 460.409 278.931 471.795 277.507 487.089C278.569 487.8 278.219 488.873 278.219 489.935C279.281 491.008 281.779 491.358 282.491 494.205C283.141 494.241 283.754 494.516 284.213 494.977C284.671 495.438 284.944 496.052 284.977 496.701C286.051 497.763 292.81 502.032 294.946 502.394C297.082 502.756 299.218 502.394 299.615 502.744C300.012 503.094 299.965 504.879 299.965 504.879C299.965 504.879 302.101 502.744 305.661 505.59C306.735 506.302 307.085 506.664 306.023 508.798C304.961 510.933 305.661 512.356 301.354 511.283C299.58 510.933 299.58 508.798 301.004 509.51C299.93 509.148 299.58 509.51 299.58 509.51C299.58 509.51 299.93 513.418 298.506 513.768C297.082 514.118 293.172 513.418 292.459 512.706C292.253 512.466 292.111 512.177 292.048 511.867C291.984 511.557 292.001 511.235 292.098 510.933C292.098 510.933 284.627 510.128 284.452 508.215C282.491 507.725 270.737 503.817 270.025 498.883C269.511 495.208 267.889 460.409 267.889 460.409Z" fill="#263546"/>
<path d="M297.315 522.132L297.502 535.828L298.564 538.674L307.471 538.324L309.245 522.307H311.323V521.957L307.225 521.782C306.552 521.139 305.67 520.759 304.739 520.709V517.151C304.739 517.151 305.451 517.151 305.451 516.801C305.451 516.685 304.844 516.568 304.027 516.486C303.922 516.486 303.782 511.47 303.665 511.458C303.549 511.447 303.665 516.451 303.584 516.451C303.001 516.403 302.417 516.383 301.833 516.393C301.774 516.393 302.311 510.035 302.241 510.035C302.171 510.035 301.506 516.393 301.436 516.393C300.502 516.393 299.767 516.545 299.767 516.801C299.767 517.058 300.467 517.151 300.467 517.151V520.709C300.467 520.709 297.969 521.071 297.619 521.782H295.833V522.156L297.315 522.132Z" fill="#263546"/>
<path d="M299.405 523.917L303.315 531.033L307.949 523.917H299.405Z" fill="#F9EC93"/>
<path d="M299.043 524.267L299.755 537.076L302.965 531.745L299.043 524.267Z" fill="#F9EC93"/>
<path d="M300.117 537.426L303.315 532.095L306.525 537.426H300.117Z" fill="#F9EC93"/>
<path d="M307.949 524.769L303.677 531.523L306.875 536.715L307.949 524.769Z" fill="#FFED94"/>
<path d="M303.315 537.251C304.198 537.251 304.914 536.536 304.914 535.653C304.914 534.77 304.198 534.055 303.315 534.055C302.432 534.055 301.716 534.77 301.716 535.653C301.716 536.536 302.432 537.251 303.315 537.251Z" fill="#FFC45C"/>
<path d="M303.035 535.07C303.432 535.07 303.84 536.924 303.432 536.924C303.023 536.924 303.035 537.298 302.626 536.924C302.218 536.551 302.626 535.07 303.035 535.07Z" fill="#FFA300"/>
<path d="M303.012 535.07C303.222 535.07 303.432 536.143 303.222 536.143C303.012 536.143 303.012 536.353 302.802 536.143C302.592 535.933 302.802 535.07 303.012 535.07Z" fill="#FFF7C5"/>
<path d="M289.448 601.937C348.376 601.937 396.147 554.195 396.147 495.301C396.147 436.408 348.376 388.665 289.448 388.665C230.519 388.665 182.749 436.408 182.749 495.301C182.749 554.195 230.519 601.937 289.448 601.937Z" stroke="#58646D" stroke-width="12" stroke-miterlimit="10"/>
<path d="M375.452 564.992C399.451 573.73 407.446 570.463 410.026 563.382C422.971 568.048 555.934 619.097 555.934 619.097C575.567 626.249 587.38 602.579 565.517 592.791C545.919 584.019 420.975 540.191 420.975 540.191C422.224 535.081 425.737 522.436 397.431 514.946L375.452 564.992Z" fill="#58646D"/>
<path d="M265.601 403.574L259.823 419.381C259.823 419.381 321.944 406.082 358.258 432.762C313.202 396.213 295.354 402.058 265.601 403.574Z" fill="#58646D"/>
</g>
<path d="M722.57 116.734C722.867 116.988 723.015 117.285 723.015 117.623C723.015 118.469 722.338 118.893 720.983 118.893C720.729 118.893 720.327 118.85 719.777 118.766C719.27 118.681 718.868 118.639 718.571 118.639C716.582 118.639 714.572 120.585 712.541 124.479C704.289 140.475 698.915 160.385 696.418 184.21C697.391 182.39 698.682 179.957 700.29 176.91C700.756 175.979 701.327 175.514 702.004 175.514C702.808 175.514 703.21 176.043 703.21 177.101C703.21 177.608 703.062 178.201 702.766 178.878C700.904 183.279 699.19 189.605 697.624 197.857C697.243 199.677 696.418 200.587 695.148 200.587C693.71 200.587 691.53 199.487 688.61 197.286C687.214 196.228 686.41 195.382 686.198 194.747C685.944 194.155 685.965 192.927 686.262 191.065C687.785 181.882 689.753 171.536 692.165 160.025C694.958 146.865 696.989 139.099 698.259 136.729C693.815 141.977 688.356 149.679 681.882 159.835C675.534 169.822 669.991 179.322 665.251 188.336C666.097 190.96 666.521 192.927 666.521 194.239C666.521 195.89 665.124 198.006 662.331 200.587C660.892 201.941 659.94 202.618 659.475 202.618C659.009 202.618 657.761 200.925 655.729 197.54C654.841 196.101 654.396 194.959 654.396 194.112C654.396 193.52 655.01 192.081 656.237 189.796C653.529 179.724 648.599 167.452 641.447 152.979C636.877 164.49 632.243 174.985 627.546 184.464C630.593 187.892 632.116 190.198 632.116 191.383C632.116 192.314 631.058 192.906 628.942 193.16C624.499 193.668 620.775 195.953 617.771 200.016C617.517 201.327 616.882 201.983 615.866 201.983C614.427 201.983 612.206 200.693 609.201 198.111C608.27 197.307 607.805 196.651 607.805 196.144C607.805 195.678 608.186 195.107 608.947 194.43C611.783 191.975 615.02 189.605 618.659 187.32C626.53 174.244 632.941 160.491 637.893 146.061C632.73 134.719 626.319 126.806 618.659 122.32C617.39 121.559 616.184 121.178 615.041 121.178C613.433 121.178 611.74 122.003 609.963 123.653C608.312 125.431 606.662 127.229 605.012 129.049C604.081 130.107 603.129 130.636 602.155 130.636C601.394 130.636 601.013 130.255 601.013 129.493C601.013 129.112 601.14 128.668 601.394 128.16C607.106 116.692 612.565 111.064 617.771 111.275C623.949 111.487 631.968 119.146 641.828 134.254C644.24 128.753 645.446 123.78 645.446 119.337C645.446 117.052 645.785 115.909 646.462 115.909C647.097 115.909 648.578 116.819 650.905 118.639C651.582 119.189 651.9 120.331 651.857 122.066C651.773 124.267 649.805 130.678 645.954 141.3C653.402 155.772 659.051 168.976 662.902 180.909C677.84 156.111 691.276 136.751 703.21 122.828C704.691 119.443 706.511 116.1 708.669 112.799C709.6 111.36 710.721 110.641 712.033 110.641C714.022 110.641 717.535 112.672 722.57 116.734ZM758.371 155.074C752.489 182.2 746.966 202.491 741.804 215.948C731.817 242.101 720.349 255.177 707.399 255.177C699.825 255.177 691.678 251.051 682.961 242.799C682.199 242.079 681.818 241.318 681.818 240.514C681.818 239.244 682.411 238.609 683.596 238.609C684.188 238.609 684.759 238.842 685.31 239.308C692.207 245.19 698.365 248.131 703.781 248.131C713.726 248.131 722.761 239.837 730.886 223.248C737.276 210.257 742.84 192.822 747.58 170.943C747.876 169.378 748.363 166.987 749.04 163.771C744.597 171.007 739.624 178.137 734.123 185.162C728.833 191.933 724.665 196.588 721.618 199.127C719.925 200.523 718.571 201.222 717.556 201.222C716.752 201.222 715.926 200.777 715.08 199.889C714.191 198.746 713.282 197.625 712.351 196.524C711.927 196.017 711.716 195.551 711.716 195.128C711.716 195.086 711.716 195.043 711.716 195.001C711.8 194.493 712.181 194.133 712.858 193.922C714.89 191.171 716.794 185.226 718.571 176.085C719.925 168.891 720.856 162.057 721.364 155.582C721.449 154.059 721.258 153.297 720.793 153.297C720.666 153.297 719.672 154.059 717.81 155.582C714.847 158.079 713.239 159.327 712.985 159.327C712.393 159.327 712.097 159.031 712.097 158.438C712.097 158.142 712.224 157.846 712.478 157.55C713.197 156.661 714.805 154.439 717.302 150.885C719.545 147.711 721.047 146.124 721.809 146.124C722.401 146.124 723.205 146.378 724.221 146.886C726.379 146.547 727.585 146.378 727.839 146.378C729.278 146.378 729.997 147.478 729.997 149.679C729.997 153.36 728.939 160.576 726.823 171.324C724.707 182.031 722.972 188.95 721.618 192.081C725.85 188.738 731.351 182.179 738.122 172.403C744.724 162.882 748.828 155.709 750.437 150.885C750.521 148.049 751.135 146.632 752.277 146.632C753.166 146.632 754.816 147.542 757.229 149.361C758.583 150.377 758.964 152.281 758.371 155.074ZM794.807 148.155C794.807 150.06 794.299 153.106 793.283 157.296C792.902 158.735 792.479 159.666 792.014 160.089C791.802 160.3 791.083 160.618 789.855 161.041C788.29 161.633 787.316 161.93 786.936 161.93C786.301 161.93 785.983 161.507 785.983 160.66C785.983 160.195 786.068 159.581 786.237 158.819C787.253 154.63 787.634 151.731 787.38 150.123C787.168 148.473 787.655 147.436 788.84 147.013C790.913 145.955 792.246 145.426 792.839 145.426C794.151 145.426 794.807 146.336 794.807 148.155ZM784.65 184.591C784.777 189.669 781.963 193.139 776.208 195.001C775.489 196.778 774.812 198.006 774.177 198.683C773.203 199.698 771.765 200.291 769.86 200.46C768.633 200.545 767.321 200.481 765.925 200.27C763.428 199.889 760.36 199.423 756.721 198.873C755.705 198.704 755.091 198.09 754.88 197.032C755.049 195.89 756.234 195.213 758.435 195.001C761.439 194.789 765.882 194.26 771.765 193.414C773.965 192.906 775.531 191.658 776.462 189.669C777.012 188.653 777.287 187.405 777.287 185.924C777.287 183.258 775.954 178.561 773.288 171.832C770.664 165.273 769.437 160.893 769.606 158.692C769.945 153.403 774.833 149.721 784.27 147.647C785.201 147.436 785.666 147.774 785.666 148.663C785.666 149.171 785.327 149.573 784.65 149.869C780.08 151.858 777.795 154.312 777.795 157.232C777.795 158.375 778.007 159.814 778.43 161.549C778.853 163.242 780.122 167.346 782.238 173.863C783.804 178.561 784.608 182.136 784.65 184.591ZM832.385 118.004C833.57 118.639 834.162 119.358 834.162 120.162C834.162 120.712 833.76 120.987 832.956 120.987C832.787 120.987 832.512 120.966 832.131 120.924C831.792 120.839 831.538 120.797 831.369 120.797C829.761 120.797 827.814 122.553 825.529 126.065C823.498 129.197 820.684 136.01 817.087 146.505C816.748 147.436 816.621 147.986 816.706 148.155C816.833 148.451 817.383 148.621 818.356 148.663C820.853 148.875 824.196 148.79 828.386 148.409C829.825 148.282 830.544 148.896 830.544 150.25C830.544 151.181 829.994 151.752 828.894 151.964C828.005 152.091 823.329 152.472 814.865 153.106C809.787 167.96 806.698 180.528 805.598 190.812C805.555 191.362 805.534 191.848 805.534 192.271C805.534 193.71 805.894 194.43 806.613 194.43C807.756 194.43 811.205 191.658 816.96 186.114C817.637 185.437 818.293 185.099 818.928 185.099C819.478 185.099 819.816 185.331 819.943 185.797C820.07 186.305 819.88 186.897 819.372 187.574C815.944 192.102 812.58 195.953 809.279 199.127C807.883 200.439 806.719 201.095 805.788 201.095C804.857 201.095 803.418 200.354 801.472 198.873C799.06 198.238 797.854 196.969 797.854 195.064C797.854 194.768 797.896 194.43 797.98 194.049C799.546 183.131 802.614 169.695 807.185 153.741C804.942 153.445 802.91 153.149 801.091 152.853C800.287 152.726 799.885 152.218 799.885 151.329C799.885 150.356 800.308 149.763 801.154 149.552C802.001 149.34 803.566 148.875 805.852 148.155C807.248 147.69 808.602 147.055 809.914 146.251C814.442 132.244 817.997 123.167 820.578 119.02C822.059 116.65 823.646 115.465 825.339 115.465C826.947 115.465 829.296 116.311 832.385 118.004ZM859.997 180.909C849.714 194.07 842.478 200.65 838.288 200.65C836.299 200.65 833.781 199.275 830.734 196.524C827.561 195.043 825.974 193.054 825.974 190.558C825.974 190.092 826.016 189.605 826.101 189.098C826.862 183.3 828.407 176.889 830.734 169.864C829.169 169.06 828.386 168.299 828.386 167.579C828.386 166.987 828.83 166.69 829.719 166.69C830.396 166.69 831.094 166.881 831.813 167.262C835.58 158.798 838.965 152.789 841.97 149.234C843.916 146.865 845.673 145.68 847.238 145.68C847.958 145.68 849.735 146.293 852.57 147.521C852.359 146.251 852.718 145.51 853.649 145.299C853.692 145.299 854.686 145.299 856.633 145.299C858.452 145.299 859.362 145.616 859.362 146.251C859.362 146.378 859.299 146.738 859.172 147.33C859.045 147.923 858.981 148.473 858.981 148.98C858.981 150.504 859.003 152.387 859.045 154.63C859.087 156.873 859.108 158.375 859.108 159.137C859.108 164.384 857.67 168.045 854.792 170.118C852.168 172.022 849.206 172.975 845.905 172.975C844.17 172.975 841.293 172.509 837.272 171.578C836.553 172.89 835.749 175.45 834.86 179.259C833.675 184.083 833.125 188.357 833.21 192.081C833.252 194.282 833.951 195.382 835.305 195.382C835.812 195.382 836.468 195.255 837.272 195.001C842.181 193.266 849.016 187.976 857.775 179.132C858.326 178.582 858.876 178.307 859.426 178.307C860.23 178.307 860.632 178.688 860.632 179.449C860.632 179.915 860.42 180.401 859.997 180.909ZM852.57 152.853C852.57 151.202 852.211 150.377 851.491 150.377C851.026 150.377 850.349 150.715 849.46 151.393C845.313 154.736 841.674 160.597 838.542 168.976C839.388 169.103 840.869 169.229 842.985 169.356C846.413 169.483 848.973 168.701 850.666 167.008C851.936 165.738 852.634 163.644 852.761 160.724C852.634 162.882 852.57 160.258 852.57 152.853ZM859.489 135.016C859.616 135.312 859.68 135.608 859.68 135.904C859.68 136.835 859.235 137.301 858.347 137.301C857.754 137.301 857.183 136.941 856.633 136.222C853.628 132.455 850.476 129.282 847.175 126.7C845.397 125.346 843.938 124.669 842.795 124.669C841.06 124.669 840.192 124.098 840.192 122.955C840.192 122.701 840.383 122.49 840.764 122.32L844.382 120.606C845.144 120.268 845.821 120.099 846.413 120.099C847.556 120.099 848.783 120.797 850.095 122.193C854.496 126.806 857.627 131.08 859.489 135.016ZM905.129 151.266C905.129 156.809 904.388 162.099 902.907 167.135C902.442 168.658 901.807 169.42 901.003 169.42C900.41 169.42 899.099 168.574 897.067 166.881C896.052 166.035 895.798 164.828 896.306 163.263C897.491 159.412 898.083 156.323 898.083 153.995C898.083 153.191 897.914 152.789 897.575 152.789C897.067 152.789 896.242 153.551 895.1 155.074C886.298 166.542 879.717 179.407 875.358 193.668C873.962 198.196 872.777 200.46 871.804 200.46C871.423 200.46 869.751 199.719 866.789 198.238C865.35 197.519 864.864 196.122 865.329 194.049C868.672 179.407 872.269 167.05 876.12 156.979C872.989 160.279 871 162.543 870.153 163.771C869.815 164.278 869.349 164.532 868.757 164.532C868.037 164.532 867.678 164.215 867.678 163.58C867.678 163.199 867.847 162.776 868.186 162.311C870.259 159.814 873.031 156.005 876.501 150.885C877.559 149.023 878.617 148.092 879.675 148.092C880.437 148.092 881.981 148.684 884.309 149.869C885.62 150.546 885.832 151.456 884.943 152.599C884.012 153.826 882.256 158.163 879.675 165.611C877.22 172.848 875.528 178.518 874.597 182.623C880.352 169.801 886.89 158.481 894.211 148.663C895.607 146.801 896.729 145.87 897.575 145.87C898.337 145.87 899.374 146.378 900.686 147.394C902.463 147.605 903.584 147.88 904.05 148.219C904.769 148.727 905.129 149.742 905.129 151.266ZM938.962 180.909C928.679 194.07 921.442 200.65 917.253 200.65C915.264 200.65 912.746 199.275 909.699 196.524C906.525 195.043 904.938 193.054 904.938 190.558C904.938 190.092 904.981 189.605 905.065 189.098C905.827 183.3 907.372 176.889 909.699 169.864C908.133 169.06 907.351 168.299 907.351 167.579C907.351 166.987 907.795 166.69 908.684 166.69C909.361 166.69 910.059 166.881 910.778 167.262C914.545 158.798 917.93 152.789 920.935 149.234C922.881 146.865 924.637 145.68 926.203 145.68C926.923 145.68 928.7 146.293 931.535 147.521C931.324 146.251 931.683 145.51 932.614 145.299C932.657 145.299 933.651 145.299 935.598 145.299C937.417 145.299 938.327 145.616 938.327 146.251C938.327 146.378 938.264 146.738 938.137 147.33C938.01 147.923 937.946 148.473 937.946 148.98C937.946 150.504 937.967 152.387 938.01 154.63C938.052 156.873 938.073 158.375 938.073 159.137C938.073 164.384 936.634 168.045 933.757 170.118C931.133 172.022 928.171 172.975 924.87 172.975C923.135 172.975 920.257 172.509 916.237 171.578C915.518 172.89 914.714 175.45 913.825 179.259C912.64 184.083 912.09 188.357 912.175 192.081C912.217 194.282 912.915 195.382 914.27 195.382C914.777 195.382 915.433 195.255 916.237 195.001C921.146 193.266 927.98 187.976 936.74 179.132C937.29 178.582 937.84 178.307 938.391 178.307C939.195 178.307 939.597 178.688 939.597 179.449C939.597 179.915 939.385 180.401 938.962 180.909ZM931.535 152.853C931.535 151.202 931.175 150.377 930.456 150.377C929.991 150.377 929.313 150.715 928.425 151.393C924.278 154.736 920.638 160.597 917.507 168.976C918.353 169.103 919.834 169.229 921.95 169.356C925.378 169.483 927.938 168.701 929.631 167.008C930.9 165.738 931.599 163.644 931.726 160.724C931.599 162.882 931.535 160.258 931.535 152.853ZM997.551 148.155C997.551 150.06 997.043 153.106 996.027 157.296C995.646 158.735 995.223 159.666 994.758 160.089C994.546 160.3 993.827 160.618 992.6 161.041C991.034 161.633 990.061 161.93 989.68 161.93C989.045 161.93 988.728 161.507 988.728 160.66C988.728 160.195 988.812 159.581 988.981 158.819C989.997 154.63 990.378 151.731 990.124 150.123C989.912 148.473 990.399 147.436 991.584 147.013C993.658 145.955 994.991 145.426 995.583 145.426C996.895 145.426 997.551 146.336 997.551 148.155ZM987.395 184.591C987.521 189.669 984.707 193.139 978.952 195.001C978.233 196.778 977.556 198.006 976.921 198.683C975.948 199.698 974.509 200.291 972.604 200.46C971.377 200.545 970.065 200.481 968.669 200.27C966.172 199.889 963.104 199.423 959.465 198.873C958.449 198.704 957.836 198.09 957.624 197.032C957.793 195.89 958.978 195.213 961.179 195.001C964.183 194.789 968.627 194.26 974.509 193.414C976.709 192.906 978.275 191.658 979.206 189.669C979.756 188.653 980.031 187.405 980.031 185.924C980.031 183.258 978.698 178.561 976.032 171.832C973.409 165.273 972.181 160.893 972.351 158.692C972.689 153.403 977.577 149.721 987.014 147.647C987.945 147.436 988.41 147.774 988.41 148.663C988.41 149.171 988.072 149.573 987.395 149.869C982.824 151.858 980.539 154.312 980.539 157.232C980.539 158.375 980.751 159.814 981.174 161.549C981.597 163.242 982.867 167.346 984.982 173.863C986.548 178.561 987.352 182.136 987.395 184.591ZM1047.63 152.979C1042.01 163.432 1037.79 175.704 1035 189.796C1036.19 187.722 1037.63 185.077 1039.32 181.861C1039.53 181.269 1039.87 180.973 1040.33 180.973C1040.97 180.973 1041.29 181.375 1041.29 182.179C1041.29 182.433 1041.22 182.708 1041.1 183.004C1038.39 189.182 1036.61 193.943 1035.76 197.286C1035.26 199.402 1034.58 200.46 1033.73 200.46C1032.89 200.46 1031.24 199.635 1028.78 197.984C1027.47 197.053 1027.03 195.403 1027.45 193.033C1029.23 183.808 1031.36 175.789 1033.86 168.976C1025.69 182.263 1018.84 192.06 1013.29 198.365C1012.07 199.762 1010.73 200.46 1009.29 200.46C1008.11 200.46 1006.71 199.973 1005.1 199C1002.18 198.492 1000.72 196.969 1000.72 194.43C1000.72 193.964 1000.77 193.456 1000.85 192.906C1001.91 180.803 1004.11 170.753 1007.45 162.755C1006.73 163.432 1005.65 164.426 1004.22 165.738C1003.67 166.204 1003.24 166.331 1002.95 166.119C1002.61 165.865 1002.67 165.379 1003.14 164.659C1005.42 161.316 1006.78 159.116 1007.2 158.058C1008.51 154.757 1009.89 152.197 1011.33 150.377C1012.09 149.446 1012.89 148.98 1013.74 148.98C1014.88 148.98 1016.55 149.658 1018.75 151.012C1019.34 151.393 1019.64 151.773 1019.64 152.154C1019.64 152.154 1019.18 152.853 1018.24 154.249C1016.13 157.465 1013.89 163.136 1011.52 171.261C1008.93 180.063 1007.62 187.236 1007.58 192.779C1007.58 194.599 1007.96 195.509 1008.72 195.509C1009.4 195.509 1010.5 194.726 1012.02 193.16C1015.28 189.69 1020 183.131 1026.18 173.482C1031.64 164.977 1034.94 159.433 1036.08 156.852C1037.99 152.535 1039.53 149.996 1040.71 149.234C1041.48 148.727 1042.15 148.473 1042.75 148.473C1043.34 148.473 1044.48 148.917 1046.17 149.806C1047.87 150.694 1048.71 151.35 1048.71 151.773C1048.71 151.9 1048.56 152.07 1048.27 152.281C1047.97 152.493 1047.76 152.726 1047.63 152.979ZM1090.99 151.266C1090.99 156.809 1090.25 162.099 1088.77 167.135C1088.3 168.658 1087.67 169.42 1086.86 169.42C1086.27 169.42 1084.96 168.574 1082.93 166.881C1081.91 166.035 1081.66 164.828 1082.17 163.263C1083.35 159.412 1083.94 156.323 1083.94 153.995C1083.94 153.191 1083.77 152.789 1083.43 152.789C1082.93 152.789 1082.1 153.551 1080.96 155.074C1072.16 166.542 1065.58 179.407 1061.22 193.668C1059.82 198.196 1058.64 200.46 1057.66 200.46C1057.28 200.46 1055.61 199.719 1052.65 198.238C1051.21 197.519 1050.72 196.122 1051.19 194.049C1054.53 179.407 1058.13 167.05 1061.98 156.979C1058.85 160.279 1056.86 162.543 1056.01 163.771C1055.67 164.278 1055.21 164.532 1054.62 164.532C1053.9 164.532 1053.54 164.215 1053.54 163.58C1053.54 163.199 1053.71 162.776 1054.04 162.311C1056.12 159.814 1058.89 156.005 1062.36 150.885C1063.42 149.023 1064.48 148.092 1065.53 148.092C1066.3 148.092 1067.84 148.684 1070.17 149.869C1071.48 150.546 1071.69 151.456 1070.8 152.599C1069.87 153.826 1068.12 158.163 1065.53 165.611C1063.08 172.848 1061.39 178.518 1060.46 182.623C1066.21 169.801 1072.75 158.481 1080.07 148.663C1081.47 146.801 1082.59 145.87 1083.43 145.87C1084.2 145.87 1085.23 146.378 1086.54 147.394C1088.32 147.605 1089.44 147.88 1089.91 148.219C1090.63 148.727 1090.99 149.742 1090.99 151.266ZM1193.82 126.446C1192.85 134.571 1190.31 144.41 1186.2 155.963C1180.96 170.605 1174.97 181.882 1168.24 189.796C1170.52 190.304 1172.7 190.558 1174.78 190.558C1180.11 190.558 1184.55 188.865 1188.11 185.479C1188.53 185.056 1188.95 184.845 1189.38 184.845C1190.14 184.845 1190.52 185.31 1190.52 186.241C1190.52 186.537 1190.46 186.855 1190.33 187.193C1189.23 189.732 1187.62 192.504 1185.5 195.509C1183.52 198.302 1181.25 199.698 1178.71 199.698C1177.78 199.698 1176.45 199.592 1174.71 199.381C1174.08 199.381 1169.49 198.429 1160.94 196.524C1157.34 199.275 1153.49 200.714 1149.39 200.841C1147.19 200.883 1145.09 200.714 1143.1 200.333C1140.82 199.91 1139.82 199.339 1140.12 198.619C1133.18 196.926 1128.38 194.959 1125.71 192.716C1122.03 189.627 1120.29 184.866 1120.5 178.434C1120.93 166.161 1124.59 153.022 1131.49 139.015C1137.03 127.758 1142.38 119.76 1147.55 115.021C1149.7 113.032 1151.69 112.037 1153.51 112.037C1155.33 112.037 1157.17 112.545 1159.04 113.561C1159.8 113.984 1162.21 115.549 1166.27 118.258C1169.57 114.661 1172.39 112.058 1174.71 110.45C1176.11 109.519 1177.55 109.054 1179.03 109.054C1181.53 109.054 1183.77 110.302 1185.76 112.799C1189.27 113.01 1191.54 113.476 1192.55 114.195C1193.78 114.999 1194.39 116.692 1194.39 119.273C1194.39 120.755 1194.2 123.146 1193.82 126.446ZM1185.38 121.114C1185.59 117.94 1184.85 116.354 1183.16 116.354C1181.8 116.354 1179.77 117.306 1177.06 119.21C1170.97 123.399 1163.61 129.578 1154.97 137.745C1154 138.676 1153.13 139.163 1152.37 139.205C1151.65 139.29 1151.29 138.972 1151.29 138.253C1151.29 137.576 1151.61 136.772 1152.24 135.841C1155.92 130.086 1159.69 125.092 1163.54 120.86C1161.34 119.21 1159.37 118.385 1157.64 118.385C1156.58 118.385 1155.65 118.702 1154.85 119.337C1150.15 122.765 1144.84 130.361 1138.91 142.125C1131.85 156.048 1128.57 168.256 1129.07 178.751C1129.29 183.025 1130.11 186.262 1131.55 188.463C1132.82 190.367 1135.08 192.145 1138.34 193.795C1140.84 195.064 1143.38 195.593 1145.96 195.382C1147.82 195.213 1149.73 194.599 1151.67 193.541C1150.02 192.949 1147 191.658 1142.59 189.669C1141.41 189.119 1140.82 187.511 1140.82 184.845C1140.82 183.11 1141.03 181.459 1141.45 179.894C1141.54 179.132 1141.92 178.666 1142.59 178.497C1143.14 178.37 1143.63 178.497 1144.05 178.878C1147.65 182.306 1152.67 185.204 1159.1 187.574C1165.66 180.634 1171.46 170.732 1176.49 157.867C1181.57 145.003 1184.53 132.752 1185.38 121.114ZM1242.38 152.979C1236.75 163.432 1232.54 175.704 1229.75 189.796C1230.93 187.722 1232.37 185.077 1234.06 181.861C1234.28 181.269 1234.61 180.973 1235.08 180.973C1235.71 180.973 1236.03 181.375 1236.03 182.179C1236.03 182.433 1235.97 182.708 1235.84 183.004C1233.13 189.182 1231.36 193.943 1230.51 197.286C1230 199.402 1229.32 200.46 1228.48 200.46C1227.63 200.46 1225.98 199.635 1223.53 197.984C1222.22 197.053 1221.77 195.403 1222.19 193.033C1223.97 183.808 1226.11 175.789 1228.61 168.976C1220.44 182.263 1213.58 192.06 1208.04 198.365C1206.81 199.762 1205.48 200.46 1204.04 200.46C1202.86 200.46 1201.46 199.973 1199.85 199C1196.93 198.492 1195.47 196.969 1195.47 194.43C1195.47 193.964 1195.51 193.456 1195.6 192.906C1196.66 180.803 1198.86 170.753 1202.2 162.755C1201.48 163.432 1200.4 164.426 1198.96 165.738C1198.41 166.204 1197.99 166.331 1197.69 166.119C1197.35 165.865 1197.42 165.379 1197.88 164.659C1200.17 161.316 1201.52 159.116 1201.95 158.058C1203.26 154.757 1204.63 152.197 1206.07 150.377C1206.83 149.446 1207.64 148.98 1208.48 148.98C1209.63 148.98 1211.3 149.658 1213.5 151.012C1214.09 151.393 1214.39 151.773 1214.39 152.154C1214.39 152.154 1213.92 152.853 1212.99 154.249C1210.87 157.465 1208.63 163.136 1206.26 171.261C1203.68 180.063 1202.37 187.236 1202.33 192.779C1202.33 194.599 1202.71 195.509 1203.47 195.509C1204.15 195.509 1205.25 194.726 1206.77 193.16C1210.03 189.69 1214.75 183.131 1220.92 173.482C1226.38 164.977 1229.68 159.433 1230.83 156.852C1232.73 152.535 1234.28 149.996 1235.46 149.234C1236.22 148.727 1236.9 148.473 1237.49 148.473C1238.08 148.473 1239.23 148.917 1240.92 149.806C1242.61 150.694 1243.46 151.35 1243.46 151.773C1243.46 151.9 1243.31 152.07 1243.01 152.281C1242.72 152.493 1242.51 152.726 1242.38 152.979ZM1278.69 180.909C1268.41 194.07 1261.17 200.65 1256.98 200.65C1254.99 200.65 1252.47 199.275 1249.43 196.524C1246.25 195.043 1244.67 193.054 1244.67 190.558C1244.67 190.092 1244.71 189.605 1244.79 189.098C1245.55 183.3 1247.1 176.889 1249.43 169.864C1247.86 169.06 1247.08 168.299 1247.08 167.579C1247.08 166.987 1247.52 166.69 1248.41 166.69C1249.09 166.69 1249.79 166.881 1250.5 167.262C1254.27 158.798 1257.66 152.789 1260.66 149.234C1262.61 146.865 1264.36 145.68 1265.93 145.68C1266.65 145.68 1268.43 146.293 1271.26 147.521C1271.05 146.251 1271.41 145.51 1272.34 145.299C1272.38 145.299 1273.38 145.299 1275.32 145.299C1277.14 145.299 1278.05 145.616 1278.05 146.251C1278.05 146.378 1277.99 146.738 1277.86 147.33C1277.74 147.923 1277.67 148.473 1277.67 148.98C1277.67 150.504 1277.69 152.387 1277.74 154.63C1277.78 156.873 1277.8 158.375 1277.8 159.137C1277.8 164.384 1276.36 168.045 1273.48 170.118C1270.86 172.022 1267.9 172.975 1264.6 172.975C1262.86 172.975 1259.98 172.509 1255.96 171.578C1255.24 172.89 1254.44 175.45 1253.55 179.259C1252.37 184.083 1251.82 188.357 1251.9 192.081C1251.94 194.282 1252.64 195.382 1254 195.382C1254.5 195.382 1255.16 195.255 1255.96 195.001C1260.87 193.266 1267.71 187.976 1276.47 179.132C1277.02 178.582 1277.57 178.307 1278.12 178.307C1278.92 178.307 1279.32 178.688 1279.32 179.449C1279.32 179.915 1279.11 180.401 1278.69 180.909ZM1271.26 152.853C1271.26 151.202 1270.9 150.377 1270.18 150.377C1269.72 150.377 1269.04 150.715 1268.15 151.393C1264 154.736 1260.36 160.597 1257.23 168.976C1258.08 169.103 1259.56 169.229 1261.68 169.356C1265.1 169.483 1267.66 168.701 1269.36 167.008C1270.63 165.738 1271.33 163.644 1271.45 160.724C1271.33 162.882 1271.26 160.258 1271.26 152.853ZM1286.75 122.32C1287.09 122.49 1287.26 122.701 1287.26 122.955C1287.26 124.098 1286.39 124.669 1284.66 124.669C1283.51 124.669 1281.95 125.431 1279.96 126.954C1276.83 129.451 1273.8 132.54 1270.88 136.222C1270.33 136.941 1269.74 137.301 1269.1 137.301C1268.26 137.301 1267.83 136.835 1267.83 135.904C1267.83 135.608 1267.9 135.312 1268.02 135.016C1269.84 131.08 1272.95 126.806 1277.36 122.193C1278.71 120.797 1279.96 120.099 1281.1 120.099C1281.65 120.099 1282.31 120.268 1283.07 120.606L1286.75 122.32ZM1334.48 100.484C1334.99 100.865 1335.25 101.288 1335.25 101.754C1335.25 102.6 1334.74 103.023 1333.72 103.023C1333.34 103.023 1332.94 102.896 1332.52 102.643C1330.57 101.627 1329.11 101.119 1328.14 101.119C1325.51 101.119 1322.59 103.722 1319.38 108.927C1307.95 127.42 1299.68 151.689 1294.56 181.734C1298.96 174.286 1302.24 169.018 1304.4 165.929C1308.8 159.581 1313.37 154.27 1318.11 149.996C1320.39 147.923 1322.44 146.886 1324.26 146.886C1325.2 146.886 1326.66 147.478 1328.64 148.663C1332.41 150.44 1334.12 153.128 1333.79 156.725C1333.07 164.934 1331.01 172.996 1327.63 180.909C1324.33 188.653 1320.41 194.726 1315.89 199.127C1314.62 200.354 1313.3 200.968 1311.95 200.968C1309.2 200.968 1305.39 197.836 1300.52 191.573C1299.97 190.854 1299.7 190.24 1299.7 189.732C1299.7 189.098 1300.06 188.78 1300.78 188.78C1301.5 188.78 1302.2 189.076 1302.87 189.669C1305.37 191.785 1307.51 192.843 1309.28 192.843C1311.02 192.843 1312.69 191.827 1314.3 189.796C1317.22 186.072 1319.86 181.015 1322.23 174.625C1324.94 167.431 1326.3 160.999 1326.3 155.328C1326.3 153.128 1325.56 152.027 1324.07 152.027C1323.23 152.027 1322.28 152.472 1321.22 153.36C1316.01 157.846 1310.72 164.236 1305.35 172.53C1299.68 181.375 1295.55 189.902 1292.97 198.111C1292.51 199.677 1291.91 200.46 1291.19 200.46C1290.85 200.46 1290.41 200.27 1289.86 199.889C1287.7 198.45 1286.47 197.604 1286.18 197.35C1285.33 196.503 1284.91 195.403 1284.91 194.049C1284.91 193.372 1285.01 192.547 1285.23 191.573C1290.18 164.617 1296.53 141.66 1304.27 122.701C1310.11 108.44 1315.36 99.1725 1320.01 94.8984C1321.24 93.7559 1322.42 93.1846 1323.57 93.1846C1324.75 93.1846 1326.25 93.8828 1328.07 95.2793C1330.19 97.0143 1332.33 98.7493 1334.48 100.484ZM1371.24 180.909C1360.95 194.07 1353.72 200.65 1349.53 200.65C1347.54 200.65 1345.02 199.275 1341.97 196.524C1338.8 195.043 1337.21 193.054 1337.21 190.558C1337.21 190.092 1337.26 189.605 1337.34 189.098C1338.1 183.3 1339.65 176.889 1341.97 169.864C1340.41 169.06 1339.63 168.299 1339.63 167.579C1339.63 166.987 1340.07 166.69 1340.96 166.69C1341.64 166.69 1342.33 166.881 1343.05 167.262C1346.82 158.798 1350.21 152.789 1353.21 149.234C1355.16 146.865 1356.91 145.68 1358.48 145.68C1359.2 145.68 1360.98 146.293 1363.81 147.521C1363.6 146.251 1363.96 145.51 1364.89 145.299C1364.93 145.299 1365.93 145.299 1367.87 145.299C1369.69 145.299 1370.6 145.616 1370.6 146.251C1370.6 146.378 1370.54 146.738 1370.41 147.33C1370.29 147.923 1370.22 148.473 1370.22 148.98C1370.22 150.504 1370.24 152.387 1370.29 154.63C1370.33 156.873 1370.35 158.375 1370.35 159.137C1370.35 164.384 1368.91 168.045 1366.03 170.118C1363.41 172.022 1360.45 172.975 1357.15 172.975C1355.41 172.975 1352.53 172.509 1348.51 171.578C1347.79 172.89 1346.99 175.45 1346.1 179.259C1344.92 184.083 1344.37 188.357 1344.45 192.081C1344.49 194.282 1345.19 195.382 1346.54 195.382C1347.05 195.382 1347.71 195.255 1348.51 195.001C1353.42 193.266 1360.26 187.976 1369.02 179.132C1369.57 178.582 1370.12 178.307 1370.67 178.307C1371.47 178.307 1371.87 178.688 1371.87 179.449C1371.87 179.915 1371.66 180.401 1371.24 180.909ZM1363.81 152.853C1363.81 151.202 1363.45 150.377 1362.73 150.377C1362.27 150.377 1361.59 150.715 1360.7 151.393C1356.55 154.736 1352.91 160.597 1349.78 168.976C1350.63 169.103 1352.11 169.229 1354.23 169.356C1357.65 169.483 1360.21 168.701 1361.91 167.008C1363.18 165.738 1363.87 163.644 1364 160.724C1363.87 162.882 1363.81 160.258 1363.81 152.853ZM1410.78 152.218C1410.78 158.777 1409.87 164.067 1408.05 168.087C1407.29 169.737 1406.11 170.118 1404.5 169.229C1402.13 167.918 1400.94 166.839 1400.94 165.992C1400.94 165.611 1401.22 165.209 1401.77 164.786C1403.21 160.724 1403.86 157.571 1403.74 155.328C1403.65 153.424 1402.7 152.472 1400.88 152.472C1400.67 152.472 1400.35 152.429 1399.93 152.345C1399.51 152.218 1399.17 152.154 1398.91 152.154C1397.43 152.154 1395.61 153.551 1393.45 156.344C1391.08 159.475 1388.82 163.834 1386.66 169.42C1384.88 174.033 1383.7 177.989 1383.11 181.29C1382.64 183.66 1382.41 185.818 1382.41 187.765C1382.41 194.239 1384.46 197.413 1388.57 197.286C1392.16 197.201 1397.43 192.695 1404.37 183.766C1405.05 182.962 1405.66 182.56 1406.21 182.56C1406.76 182.56 1407.04 182.898 1407.04 183.575C1407.04 183.914 1406.93 184.337 1406.72 184.845C1404.48 190.346 1401.54 195.191 1397.9 199.381C1397.01 200.439 1395.44 200.968 1393.2 200.968C1391.85 200.968 1390.2 200.693 1388.25 200.143C1384.36 199.889 1381.25 198.64 1378.92 196.397C1376.42 193.985 1375.26 190.833 1375.43 186.939C1375.6 182.454 1377.16 176.233 1380.12 168.277C1383.3 159.645 1386.62 153.382 1390.09 149.488C1391.7 147.711 1393.05 146.822 1394.15 146.822C1395.25 146.822 1397.41 147.753 1400.63 149.615C1402.36 148.98 1404.08 148.663 1405.77 148.663C1409.11 148.663 1410.78 149.848 1410.78 152.218Z" fill="#F9EC93"/>
<defs>
<clipPath id="clip0_444_2946">
<rect width="1440" height="765" fill="white"/>
</clipPath>
</defs>
</svg>
